<?xml version="1.0" encoding="utf-8"?>

<!DOCTYPE svg PUBLIC "-//W3C//DTD SVG 1.1//EN" "http://www.w3.org/Graphics/SVG/1.1/DTD/svg11.dtd">
<!-- Uploaded to: SVG Repo, www.svgrepo.com, Generator: SVG Repo Mixer Tools -->
<svg height="50px" width="50px" version="1.1" id="_x32_" xmlns="http://www.w3.org/2000/svg" xmlns:xlink="http://www.w3.org/1999/xlink" 
	 viewBox="0 0 512 512"  xml:space="preserve">
<style type="text/css">
	.st0{fill="#179b6b" ;}
</style>
<g>
	<path class="st0" d="M134.952,315.459c0-2.632,0.058-5.272,0.334-7.86h-31.239c-0.189,2.588-0.241,5.228-0.241,7.86
		c0,2.684,0.052,5.272,0.241,7.861h31.239C135.01,320.732,134.952,318.099,134.952,315.459z" fill="#179b6b" />
	<path class="st0" d="M190.21,214.731c2.952-1.869,5.97-3.636,9.031-5.192l1.193-0.581l-15.568-27.044
		c-3.898,1.97-7.694,4.152-11.374,6.545l15.576,27.043L190.21,214.731z" fill="#179b6b" />
	<path class="st0" d="M120.844,245.934l27.051,15.569l6.544-11.358l-27.058-15.576C124.996,238.256,122.815,242.037,120.844,245.934
		z" fill="#179b6b" />
	<path class="st0" d="M360.31,370.593c-1.622,3.069-3.331,6.079-5.25,8.988l-0.778,1.142l27.058,15.576
		c2.385-3.686,4.567-7.417,6.589-11.314l-26.993-15.628L360.31,370.593z" fill="#179b6b" />
	<path class="st0" d="M148.462,370.55l-0.625-1.193l-26.993,15.569c1.92,3.898,4.152,7.687,6.538,11.373l27.058-15.576l-0.785-1.142
		C151.785,376.672,150.026,373.662,148.462,370.55z" fill="#179b6b" />
	<path class="st0" d="M190.21,416.137l-1.142-0.786l-15.576,27.058c3.68,2.392,7.475,4.617,11.374,6.595l15.568-27.051l-1.193-0.574
		C196.179,419.824,193.161,418.056,190.21,416.137z" fill="#179b6b" />
	<path class="st0" d="M335.229,188.459c-3.679-2.393-7.431-4.574-11.307-6.545l-15.634,27l11.365,6.588L335.229,188.459z" fill="#179b6b" />
	<path class="st0" d="M246.522,434.556v31.203c2.596,0.233,5.228,0.276,7.853,0.276c2.647,0,5.279-0.043,7.868-0.276v-31.203v-0.328
		h-15.721V434.556z" fill="#179b6b" />
	<path class="st0" d="M262.243,196.37v-31.204c-2.589-0.232-5.221-0.283-7.868-0.283c-2.625,0-5.257,0.051-7.853,0.283v31.204v0.327
		h15.721V196.37z" fill="#179b6b" />
	<path class="st0" d="M308.288,422.004l15.634,27c3.876-2.036,7.628-4.203,11.307-6.595l-15.576-27.058L308.288,422.004z" fill="#179b6b" />
	<path class="st0" d="M387.928,245.934c-1.978-3.897-4.204-7.678-6.589-11.365l-27.058,15.576l6.603,11.358L387.928,245.934z" fill="#179b6b" />
	<path class="st0" d="M404.726,307.599h-31.247h-0.328v15.721h0.328h31.247c0.188-2.588,0.232-5.221,0.232-7.861
		C404.958,312.827,404.915,310.187,404.726,307.599z" fill="#179b6b" />
	<path class="st0" d="M442.146,148.275c0,0-0.85,16.26-16.434,23.182c-15.584,6.93-31.166-8.653-8.653-25.975
		c22.506-17.321,20.775-74.448,0-91.769c5.192,13.852-16.463,32.904-30.301,20.783c-13.86-22.513,0.858-59.744,21.64-70.129
		c-15.584-12.136-61.475,1.724-61.475,32.898c0,24.797,0.865,34.636-19.917,33.77c-22.746-0.96-3.454-39.841,0-45.034
		c-67.533,9.526-29.437,69.27-55.412,70.994c-25.974,1.738-10.384-25.961-8.653-29.436c-45.164,7.511-34.155,35.747-65.642,59.818
		c-80.702,24.454-139.45,99.39-139.457,188.09C57.849,424.019,145.83,511.993,254.375,512
		c108.553-0.007,196.534-87.981,196.541-196.534c0-25.08-4.748-49.033-13.307-71.089c2.138-26.404,11.649-42.583,14.834-55.687
		C459.577,159.371,442.146,148.275,442.146,148.275z M254.375,486.643c-47.31-0.007-90.024-19.139-121.038-50.138
		c-30.999-31.021-50.132-73.735-50.138-121.038c0.006-47.317,19.139-90.031,50.138-121.045c31.014-31,73.728-50.132,121.038-50.132
		c47.31,0,90.024,19.132,121.046,50.132c31,31.014,50.131,73.728,50.138,121.045c-0.007,47.303-19.139,90.017-50.138,121.038
		C344.399,467.504,301.685,486.636,254.375,486.643z" fill="#179b6b" />
	<path class="st0" d="M321.348,233.645l-66.514,71.052l-51.353-35.754c-4.799-3.542-12.006-1.906-16.071,3.65
		c-4.065,5.541-3.462,12.9,1.36,16.434l58.058,44.794l0.8,0.465l0.371,0.196c5.025,2.8,11.664,1.316,16.092-3.563l0.386-0.378
		l71.161-84.192c4.058-4.538,4.13-11.067,0.181-14.58C331.87,228.264,325.391,229.108,321.348,233.645z" fill="#179b6b" />
</g>
</svg>