<?xml version="1.0" encoding="UTF-8" standalone="no"?>
<svg
   xmlns:dc="http://purl.org/dc/elements/1.1/"
   xmlns:cc="http://creativecommons.org/ns#"
   xmlns:rdf="http://www.w3.org/1999/02/22-rdf-syntax-ns#"
   xmlns:svg="http://www.w3.org/2000/svg"
   xmlns="http://www.w3.org/2000/svg"
   viewBox="0 0 1392 625.33331"
   height="625.33331"
   width="1392"
   xml:space="preserve"
   id="svg2"
   version="1.1"><metadata
     id="metadata8"><rdf:RDF><cc:Work
         rdf:about=""><dc:format>image/svg+xml</dc:format><dc:type
           rdf:resource="http://purl.org/dc/dcmitype/StillImage" /></cc:Work></rdf:RDF></metadata><defs
     id="defs6" /><g
     transform="matrix(1.3333333,0,0,-1.3333333,0,625.33333)"
     id="g10"><g
       transform="scale(0.1)"
       id="g12"><path
         id="path14"
         style="fill:#000000;fill-opacity:1;fill-rule:nonzero;stroke:none"
         d="m 4355,4638.01 c -293.98,-126.99 -545,-311.99 -716.99,-526.99 -101.02,-126.02 -209.03,-332.04 -251.02,-480 -46.99,-160 -73.01,-370 -61.99,-497.04 l 6.99,-85 38.01,94.03 c 20,51.99 48.98,118.98 63.01,150 13.98,30.97 25,58.01 23.98,60 -0.97,1.99 0,3.01 1.99,1.99 2.04,-1.99 26.02,38.01 54.03,88.98 26.99,50 70.97,124.03 98.01,165 27.96,40 46.99,79.03 42.96,85 -3.98,7.04 -2.96,8.01 4.03,4.03 13.01,-8.01 63.98,63.01 55,76.99 -3.01,6.02 -1.99,6.99 3.98,3.98 5,-2.96 50,39.03 99.03,95 80.97,92.04 200,201.02 281.99,257.04 48.01,32.96 38.98,11.99 -19.03,-44.03 -78.98,-78.01 -180.97,-203.98 -173.98,-215 3.98,-5.97 1.02,-8.98 -6.02,-8.01 C 3880,3868.01 3736.99,3651.02 3670,3516.02 3578.01,3328.98 3511.99,3131.99 3476.99,2945 l -5.97,-31.02 90,24.03 c 245,65 487.96,200 636.99,353.98 160,164.03 273.01,399.03 316.99,660 31.02,179.03 18.01,481.99 -28.01,686.02 L 4475,4690 Z" /><path
         id="path16"
         style="fill:#000000;fill-opacity:1;fill-rule:nonzero;stroke:none"
         d="m 1635,4418.98 c -36.99,-113.98 -56.02,-423.98 -36.02,-580 26.02,-200.97 109.03,-401.99 233.01,-563.98 96.02,-126.99 208.01,-223.98 366.99,-318.01 16.02,-8.98 19.03,-13.98 -67.96,115 -164.03,246.02 -275,554.03 -286.02,800 l -5,105 23.98,-100 c 78.01,-325 225,-605 436.02,-828.01 l 63.98,-68.98 18.01,53.98 c 36.99,105 59.03,207.04 68.01,308.01 30,351.02 -106.99,644.03 -408.98,871.02 C 1895,4323.01 1645,4448.98 1635,4418.98 Z" /><path
         id="path18"
         style="fill:#000000;fill-opacity:1;fill-rule:nonzero;stroke:none"
         d="M 806.988,2271.02 C 651.02,2256.99 438.98,2196.02 258.012,2113.98 188.012,2081.99 0,1975 0,1966.99 c 0,-13.98 73.9805,-83.98 83.0117,-78.01 5.9688,4.03 6.9883,1.02 1.9883,-5.97 -10,-16.99 33.98,-61.99 160,-165 143.012,-118.01 243.98,-186.02 371.988,-250 215,-108.01 414.032,-156.02 649.032,-156.02 200.97,0 347.96,26.99 530,96.99 110,42.04 106.99,51.02 -16.02,52.04 -186.99,1.99 -463.01,50 -675,117.96 -193.012,62.04 -485,213.01 -485,251.02 0,11.02 3.012,13.01 8.012,6.02 8.976,-15 190.968,-93.01 296.988,-127.04 263.98,-86.99 590,-128.98 830,-106.99 121.99,11.02 225,26.99 225,36.02 0,8.01 -118.01,163.01 -173.01,225.97 -26.99,32.04 -53.98,55 -60,51.02 -5,-3.01 -6.99,-1.02 -3.01,5 3.01,6.02 -22.96,35 -60,66.02 -258.98,220 -547.96,313.98 -876.992,285 z" /><path
         id="path20"
         style="fill:#000000;fill-opacity:1;fill-rule:nonzero;stroke:none"
         d="m 3413.98,2085 c -20.97,-61.02 -375.97,-976.02 -380,-981.02 -0.97,-1.99 -20.97,-5.97 -42.96,-8.98 l -41.02,-6.02 v -96.992 h 320 v 96.992 l -40,7.04 c -23.98,3.98 -40,11.99 -40,20 0,25 68.98,198.98 81.99,207.96 6.99,4.03 114.03,7.04 238.01,5 l 225,-1.99 36.99,-100 c 20,-55 36.99,-105 38.01,-110.97 0,-6.02 -18.98,-15 -41.99,-20 -43.01,-9.03 -43.01,-9.03 -43.01,-54.03 v -45.002 l 163.01,-3.008 161.99,-1.992 v 50.002 c 0,45 -1.99,50 -21.99,50 -56.99,0 -65,9.03 -101.02,103.01 -18.98,51.02 -100,265 -180.97,476.99 -81.02,211.99 -154.03,404.03 -163.01,428.01 l -16.02,41.99 H 3435 Z m 104.03,-160 c 5.97,-16.02 45,-120 85.97,-233.01 41.02,-113.01 77.04,-213.01 81.02,-221.99 6.99,-16.99 -6.02,-18.01 -185,-18.01 -105,0 -190,4.03 -188.01,9.03 1.99,3.98 43.01,116.99 93.01,250 48.98,131.99 91.99,240.97 96.02,240.97 3.98,0 10.97,-11.99 16.99,-26.99 z" /><path
         id="path22"
         style="fill:#000000;fill-opacity:1;fill-rule:nonzero;stroke:none"
         d="m 4150,2101.99 c 0,-45 11.02,-53.98 83.01,-63.98 l 46.99,-6.99 v -919.03 l -21.99,-3.98 C 4146.02,1085 4155,1091.02 4155,1041.99 v -45.002 l 203.01,-3.008 201.99,-1.992 v 49.032 c 0,48.98 0,48.98 -36.99,55 -21.02,3.98 -50,8.98 -65,11.99 l -28.01,5.97 v 383.01 c 0,211.02 3.01,386.02 8.01,389.03 C 4445,1890 4490,1820 4840,1255 L 5003.01,991.988 H 5150 V 2030 l 38.01,6.02 c 96.99,16.99 91.99,13.98 91.99,61.99 v 43.98 h -410 v -43.98 c 0,-48.01 -5,-45 93.01,-61.99 L 5000,2030 v -388.98 c 0,-214.03 -1.99,-389.03 -3.98,-389.03 -2.04,0 -129.03,200 -282.04,445 l -278.98,445 h -285 z" /><path
         id="path24"
         style="fill:#000000;fill-opacity:1;fill-rule:nonzero;stroke:none"
         d="m 5843.98,2070 c -15,-40 -60,-156.02 -100,-258.01 C 5705,1710 5641.99,1548.01 5605,1451.99 5461.99,1076.02 5478.01,1108.01 5428.98,1096.02 5385,1085 5385,1085 5385,1041.02 v -44.032 l 160,-3.008 161.02,-1.992 -1.02,49.032 V 1090 l -43.01,6.99 c -35.97,5 -41.99,10 -36.99,23.01 3.98,8.98 20,55 36.99,101.99 16.99,46.99 35,91.02 40,98.01 8.01,8.98 68.01,11.99 238.01,11.99 h 228.01 l 35.97,-100.97 c 20,-55 36.02,-107.04 36.02,-115 0,-8.01 -15,-16.02 -40,-20 l -40,-7.04 v -96.992 h 320 v 96.022 l -41.99,10 -41.02,8.98 -178.98,470 C 6120,1836.02 6031.99,2068.01 6021.99,2095 l -16.99,46.99 h -133.01 z m 190,-371.02 c 47.04,-130.97 86.02,-240 86.02,-242.96 0,-2.04 -83.01,-4.03 -185,-4.03 -101.99,0 -185,1.99 -185,5 0,21.99 183.98,494.03 191.02,488.01 3.98,-3.98 45.97,-115 92.96,-246.02 z" /><path
         id="path26"
         style="fill:#000000;fill-opacity:1;fill-rule:nonzero;stroke:none"
         d="m 6590,2098.01 c 0,-48.01 -5,-45 93.01,-61.99 L 6720,2030 v -916.02 l -50,-10.97 c -28.01,-6.02 -58.01,-11.02 -65,-11.02 -11.02,0 -15,-13.01 -15,-50 v -50.002 h 410 v 50.002 c 0,36.99 -3.98,50 -15,50 -6.99,0 -36.99,5 -65,11.02 l -50,10.97 v 389.03 c 0,230.97 3.98,388.01 8.98,385 5,-3.01 30,-41.02 56.02,-84.03 25,-41.99 70,-113.98 98.01,-158.98 151.99,-241.99 223.01,-355 231.99,-371.02 6.02,-10 41.02,-66.99 78.98,-126.99 38.01,-60.97 75,-120 83.01,-131.99 11.99,-21.02 21.02,-23.012 88.01,-23.012 h 75 V 2030 l 38.01,6.02 c 96.99,16.99 91.99,13.98 91.99,61.99 v 43.98 h -410 v -43.98 c 0,-49.03 1.02,-50 83.01,-61.99 L 7440,2030 v -385 c 0,-286.02 -3.01,-383.98 -11.99,-381.02 -6.02,2.04 -111.99,166.02 -235,364.03 C 7070,1825 6946.99,2021.99 6920,2065 l -48.98,76.99 H 6590 Z" /><path
         id="path28"
         style="fill:#000000;fill-opacity:1;fill-rule:nonzero;stroke:none"
         d="m 7820,2096.99 c 0,-43.01 1.02,-43.98 38.01,-50 20,-3.98 41.99,-8.01 48.01,-10 10,-3.01 116.99,-193.98 285.97,-508.98 L 8250,1420 v -306.02 l -50,-10.97 c -28.01,-6.02 -56.02,-11.02 -63.01,-11.02 -8.01,0 -10.97,-15.97 -8.98,-50 l 3.98,-50.002 H 8530 v 50.002 c 0,36.99 -3.98,50 -15,50 -6.99,0 -36.99,5 -65,11.02 l -50,10.97 v 285 l 173.98,319.03 c 95,175 179.03,320 187.04,320.97 86.99,11.02 83.98,9.03 80.97,58.01 l -3.98,45 H 8450 v -40 c 0,-33.98 3.98,-41.99 26.02,-50 13.98,-5.97 40.97,-10 60,-10 25,0 33.98,-3.98 33.98,-16.99 0,-8.98 -26.02,-66.02 -58.98,-126.99 -32.04,-61.02 -84.03,-161.99 -115,-223.01 -32.04,-61.99 -61.02,-113.01 -64.03,-113.01 -8.98,0 -241.99,451.99 -241.99,468.01 0,6.99 13.01,11.99 28.98,11.99 16.02,0 43.01,3.01 60,6.02 29.03,5.97 31.02,8.98 31.02,50 v 43.98 h -390 z" /><path
         id="path30"
         style="fill:#000000;fill-opacity:1;fill-rule:nonzero;stroke:none"
         d="m 9401.02,2053.98 c -18.01,-47.96 -48.01,-125 -66.02,-171.99 -18.98,-46.99 -90,-230.97 -158.98,-410 -70,-178.98 -131.02,-335 -136.02,-346.99 -8.98,-21.02 -21.99,-26.99 -75,-35 -18.98,-3.01 -23.01,-26.99 -16.02,-90 1.02,-5 73.01,-8.012 161.02,-8.012 h 160 V 1090 l -45,6.02 -43.98,6.99 33.98,93.98 c 55,151.99 20,136.02 286.99,133.01 l 231.02,-3.01 38.98,-105 c 21.02,-58.01 38.01,-108.01 38.01,-111.99 0,-3.98 -20,-10 -45,-13.98 l -45,-6.02 v -98.012 h 330 v 96.992 l -41,6.02 c -22.98,3.01 -45.02,11.02 -50.02,18.01 -3.98,6.99 -57.96,145.97 -118.98,308.01 -61.99,162.96 -145,381.99 -185,485.97 -40,105 -76.02,200 -78.98,213.01 -7.04,20 -14.03,21.99 -74.03,21.99 H 9435 Z M 9586.99,1730 c 45,-123.01 85,-235 88.01,-250 l 6.99,-28.01 H 9495 c -103.01,0 -185,4.03 -183.01,8.01 1.99,5 43.01,118.01 91.99,250 49.03,133.01 92.04,241.99 95,241.99 3.01,0 43.01,-100 88.01,-221.99 z" /><path
         id="path32"
         style="fill:#000000;fill-opacity:1;fill-rule:nonzero;stroke:none"
         d="m 2470,491.02 c -83.01,-34.028 -131.02,-107.04 -138.01,-214.028 -5,-85 8.01,-138.012 49.03,-193.9803 52.96,-73.0117 160,-101.9922 245.97,-66.0195 59.03,25 73.01,43.0078 73.01,91.9878 0,35 -3.01,43.012 -18.98,43.012 -14.03,0 -20,-10 -25,-38.012 -7.04,-46.9878 -34.03,-61.9878 -109.03,-61.9878 -103.98,0 -160.97,71.9878 -160,201.0198 0,128.008 58.01,198.98 161.02,198.98 78.98,0 111.99,-20.972 111.99,-71.992 0,-21.02 5,-28.008 20,-28.008 16.99,0 20,6.988 20,43.008 0,48.98 -13.98,66.992 -73.01,91.992 -40.97,16.988 -118.98,19.028 -156.99,4.028 z" /><path
         id="path34"
         style="fill:#000000;fill-opacity:1;fill-rule:nonzero;stroke:none"
         d="M 2970,480 C 2853.01,416.992 2815,230 2893.98,100 2933.01,35 2990,1.99219 3063.98,1.99219 3196.02,3.01172 3280,101.02 3280,256.02 c 0,140.972 -78.98,235.972 -203.01,243.98 -50.97,3.012 -70,-1.02 -106.99,-20 z m 186.02,-53.008 C 3221.99,383.98 3245,225 3198.01,133.98 3170,78.9805 3126.02,50 3068.01,50 2970,48.0117 2910,125 2910,251.992 c 0,76.02 33.98,161.02 71.99,181.02 56.02,30 123.01,28.008 174.03,-6.02 z" /><path
         id="path36"
         style="fill:#000000;fill-opacity:1;fill-rule:nonzero;stroke:none"
         d="m 3545,485 c -86.99,-45 -128.01,-118.98 -128.01,-233.008 0,-83.012 14.03,-126.992 58.01,-178.0115 56.99,-67.96097 158.98,-90.9688 241.99,-56.9883 59.03,25 73.01,43.0078 73.01,91.9878 0,35 -3.01,43.012 -18.98,43.012 -14.03,0 -21.02,-10 -25,-35 C 3736.02,66.9922 3688.01,45 3598.01,50 c -74.03,5 -136.02,118.98 -125,228.98 11.99,112.04 68.98,173.012 163.98,173.012 66.99,0 100,-20 109.03,-65.972 3.98,-24.028 11.99,-34.028 25,-34.028 15.97,0 18.98,8.008 18.98,44.028 0,46.992 -16.02,65 -83.01,93.98 -38.98,16.992 -125.97,13.98 -161.99,-5 z" /><path
         id="path38"
         style="fill:#000000;fill-opacity:1;fill-rule:nonzero;stroke:none"
         d="M 4063.98,483.012 C 3901.99,408.012 3900,103.98 4060,21.9922 4141.99,-20 4260,6.01953 4315,78.0117 4403.98,193.98 4381.99,388.98 4271.99,466.02 c -55,38.98 -145.97,46.992 -208.01,16.992 z m 168.01,-46.02 c 9.03,-3.012 29.03,-25 45,-46.992 24.03,-36.02 28.01,-51.988 31.02,-126.988 3.01,-74.032 0,-91.992 -20,-131.02 C 4260,78.0117 4216.02,50 4155,50 c -93.98,0 -145,58.98 -153.01,176.02 -5.97,90.972 10,146.992 53.01,190 43.98,43.98 105,50.972 176.99,20.972 z" /><path
         id="path40"
         style="fill:#000000;fill-opacity:1;fill-rule:nonzero;stroke:none"
         d="m 4500,483.012 c 0,-16.02 8.01,-23.012 30,-26.992 L 4560,450 V 53.9805 l -30,-6.9883 c -21.02,-5 -30,-13.0117 -30,-25.9727 0,-17.03903 8.01,-19.02731 85,-19.02731 76.99,0 85,1.98828 85,19.02731 0,12.961 -8.98,20.9727 -26.99,25 -26.99,5.9727 -28.01,7.961 -28.01,80.0005 V 200 l 86.99,3.98 c 101.02,6.02 144.03,26.02 170,78.012 36.02,70 11.99,156.988 -53.01,195 -28.98,16.988 -56.99,20 -175.97,24.028 -141.02,2.96 -143.01,2.96 -143.01,-18.008 z m 301.02,-60 c 31.99,-31.992 37.96,-79.032 17.96,-124.032 -15.97,-35 -50,-46.988 -131.99,-46.988 H 4615 v 200 h 78.01 c 73.01,0 80,-1.992 108.01,-28.98 z" /><path
         id="path42"
         style="fill:#000000;fill-opacity:1;fill-rule:nonzero;stroke:none"
         d="m 5020,481.992 c 0,-13.98 8.01,-21.992 28.01,-25.972 l 26.99,-5 -3.01,-199.028 L 5068.98,53.9805 5045,48.0117 C 5028.98,43.9805 5020,35 5020,21.9922 5020,3.01172 5026.99,1.99219 5205,1.99219 h 185 V 61.9922 c 0,51.9878 -1.99,59.9998 -18.98,59.9998 -20,0 -31.02,-18.012 -31.02,-50.9725 0,-18.0078 -8.01,-19.0273 -105,-19.0273 H 5130 V 231.992 h 95 c 95,0 95,0 95,25 0,25 0,25 -95,25 h -95 v 170 h 210 v -35 c 0,-30.972 3.01,-35 25,-35 23.98,0 25,3.008 25,60 v 60 h -185 c -178.98,0 -185,-0.972 -185,-20 z" /><path
         id="path44"
         style="fill:#000000;fill-opacity:1;fill-rule:nonzero;stroke:none"
         d="M 5736.99,495 C 5735,490 5696.02,390 5650,270 5588.98,108.98 5563.01,51.9922 5548.98,48.9805 5538.01,46.0195 5530,35 5530,23.0117 c 0,-19.03123 6.02,-21.01951 65,-21.01951 58.98,0 65,1.98828 65,21.01951 0,11.9883 -8.01,23.0078 -18.98,25.9688 -18.01,5 -18.01,6.0195 -1.02,51.0195 l 18.01,46.992 103.98,3.008 104.03,3.012 12.96,-38.012 c 8.01,-21.0195 16.02,-43.0078 18.01,-50 3.01,-6.0195 -5,-13.9805 -15.97,-18.0078 -12.04,-3.0117 -21.02,-15 -21.02,-25.9727 0,-17.03903 6.99,-19.02731 70,-19.02731 61.02,0 70,1.98828 70,18.00781 0,11.0195 -10,23.0117 -23.01,28.9805 -16.99,8.0117 -33.98,42.039 -70.97,139.0315 -123.01,326.988 -117.04,313.98 -142.04,313.98 -11.99,0 -25,-3.012 -26.99,-6.992 z m 71.02,-186.02 40,-106.988 h -84.03 c -45.97,0 -83.98,1.988 -83.98,4.028 0,1.992 16.02,45.972 35,97.96 20,51.02 38.01,99.032 40,107.04 8.01,20 10,15.972 53.01,-102.04 z" /><path
         id="path46"
         style="fill:#000000;fill-opacity:1;fill-rule:nonzero;stroke:none"
         d="m 6110,446.992 c 0,-51.992 1.02,-55 25,-55 21.02,0 25,5 25,30 v 30 h 120 V 53.9805 l -31.02,-6.9883 C 6228.01,41.9922 6220,35 6221.99,23.9805 6225,10 6240,6.01953 6308.01,3.98047 6385,1.01953 6390,3.01172 6390,21.0195 c 0,13.9805 -8.98,22.961 -25,26.9922 l -25,5.9688 V 451.992 h 120 v -30 c 0,-25 3.98,-30 25,-30 23.98,0 25,3.008 25,55 v 55 h -400 z" /><path
         id="path48"
         style="fill:#000000;fill-opacity:1;fill-rule:nonzero;stroke:none"
         d="m 6870,483.012 c 0,-13.012 8.98,-21.02 30,-26.02 L 6930,450 V 55 l -28.98,-6.0195 c -22.04,-5 -29.03,-11.9883 -28.01,-26.9883 C 6873.98,3.01172 6880,1.99219 7061.99,1.99219 H 7250 V 61.9922 c 0,56.9878 -1.02,59.9998 -25,59.9998 -21.99,0 -25,-3.98 -25,-34.9998 v -35 H 6990 V 231.992 h 95 c 95,0 95,0 95,25 0,25 0,25 -93.98,25 h -95 l -6.02,170 h 106.02 c 78.98,0 106.99,-3.012 105.97,-11.992 -0.97,-46.988 4.03,-58.008 28.01,-58.008 23.98,0 25,3.008 25,60 v 60 h -190 c -181.02,0 -190,-0.972 -190,-18.98 z" /><path
         id="path50"
         style="fill:#000000;fill-opacity:1;fill-rule:nonzero;stroke:none"
         d="m 7390,476.992 c 0,-18.012 5,-25 20,-25 13.01,0 33.98,-20.972 61.02,-61.992 22.96,-35 55,-80 70.97,-100 L 7571.02,253.012 7500,151.992 C 7453.01,85 7421.02,50 7405,46.0195 c -16.02,-4.0273 -25,-13.0078 -25,-25 0,-17.03903 8.01,-19.02731 80,-19.02731 73.01,0 80,1.98828 80,20.00001 0,14.0273 -6.99,20 -21.02,20 -15,0 -18.98,5 -15,15 8.01,21.9883 84.03,133.0078 95,139.9998 9.03,5 111.02,-133.9803 111.02,-149.9998 0,-3.0117 -8.98,-5 -20,-5 -13.01,0 -20,-6.9922 -20,-20 0,-18.01173 6.99,-20.00001 75,-20.00001 68.01,0 75,1.98828 75,20.00001 0,11.9883 -8.98,21.9883 -21.99,25 -14.03,4.0273 -48.01,41.9883 -88.01,99.9998 -35,51.02 -66.02,96.988 -66.99,101.988 -1.02,4.032 28.01,51.02 65,103.012 45,64.028 75,96.02 90,98.008 15.97,1.992 21.99,10 21.99,28.012 0,23.008 -1.99,23.98 -75,23.98 -73.01,0 -75,-0.972 -75,-25 0,-18.012 5,-25 20,-25 18.01,0 13.98,-10 -30,-75.972 -28.01,-41.02 -55,-74.028 -60,-72.04 -6.99,3.012 -100,136.02 -100,144.032 0,1.988 8.98,3.98 20,3.98 15,0 20,6.988 20,25 0,24.028 -1.99,25 -75,25 -73.01,0 -75,-0.972 -75,-25 z" /><path
         id="path52"
         style="fill:#000000;fill-opacity:1;fill-rule:nonzero;stroke:none"
         d="m 7940,483.012 c 0,-16.02 8.01,-23.012 30,-26.992 L 8000,450 V 53.9805 l -30,-6.9883 c -21.02,-5 -30,-13.0117 -30,-25.9727 0,-17.03903 8.01,-19.02731 85,-19.02731 76.99,0 85,1.98828 85,19.02731 0,12.961 -8.98,20.9727 -26.99,25 -26.99,5.9727 -28.01,7.961 -28.01,80.0005 V 200 l 86.99,3.98 c 101.02,6.02 144.03,26.02 170,78.012 36.02,70 11.99,156.988 -53.01,195 -28.98,16.988 -56.99,20 -175.97,24.028 -141.02,2.96 -143.01,2.96 -143.01,-18.008 z m 301.02,-60 C 8263.98,400 8270,385 8270,351.992 c 0,-33.012 -6.02,-48.012 -28.98,-70.972 -28.01,-27.04 -35,-29.028 -108.01,-29.028 H 8055 v 200 h 78.01 c 73.01,0 80,-1.992 108.01,-28.98 z" /><path
         id="path54"
         style="fill:#000000;fill-opacity:1;fill-rule:nonzero;stroke:none"
         d="M 8583.98,483.012 C 8456.02,425 8418.98,201.992 8515,75 8568.98,5 8681.02,-18.0078 8766.02,23.0117 8936.99,105 8928.98,413.98 8753.01,486.992 c -48.01,20 -119.03,18.008 -169.03,-3.98 z m 172.04,-50 c 16.99,-11.02 40.97,-40 53.98,-66.02 18.98,-40 21.99,-58.012 18.01,-128.98 C 8821.02,110 8775,51.9922 8676.99,50 c -93.98,-1.0195 -146.99,58.98 -155,176.02 -5.97,91.992 10,146.992 54.03,190.972 31.99,31.988 40,35 91.99,35 38.01,0 66.99,-5.972 88.01,-18.98 z" /><path
         id="path56"
         style="fill:#000000;fill-opacity:1;fill-rule:nonzero;stroke:none"
         d="m 9020,481.992 c 0,-15 8.98,-21.992 30,-25.972 L 9080,450 V 55 l -30,-6.0195 c -21.02,-5 -30,-11.9883 -30,-26.9883 0,-18.01173 6.02,-20.00001 85,-20.00001 78.98,0 85,1.98828 85,20.00001 0,15 -8.98,21.9883 -30,26.9883 L 9130,55 v 176.992 h 70 c 113.98,0 135,-18.98 143.01,-133.9803 3.98,-65 28.01,-96.01951 73.01,-96.01951 30,0 32.96,30.00001 3.98,48.00781 -16.02,8.9805 -20,23.0117 -20,61.02 0,65.972 -16.99,110 -51.02,130 l -28.98,17.96 26.02,13.012 c 61.99,34.028 70,128.008 15.97,181.988 -38.01,38.012 -81.99,47.04 -223.98,48.012 -111.99,0 -118.01,-0.972 -118.01,-20 z m 301.02,-58.98 c 26.99,-33.012 25,-86.02 -6.02,-116.02 -21.02,-21.992 -33.01,-25 -101.99,-25 h -79.03 l 1.02,86.02 v 85.968 l 83.01,-3.98 c 73.98,-3.008 85.97,-6.02 103.01,-26.988 z" /><path
         id="path58"
         style="fill:#000000;fill-opacity:1;fill-rule:nonzero;stroke:none"
         d="m 9560,446.02 c 0,-52.04 1.02,-55 23.01,-52.04 15.97,2.04 23.01,11.02 25,31.02 3.01,26.02 5,26.992 63.01,26.992 H 9730 V 53.9805 l -30,-6.9883 c -21.02,-5 -30,-13.0117 -30,-25.9727 0,-17.03903 8.01,-19.02731 85,-19.02731 78.01,0 85,1.98828 85,20.00001 0,13.0078 -8.98,21.9883 -25,26.0195 l -23.98,5.9688 -3.01,199.0315 -3.01,198.98 h 125 v -30 c 0,-25 3.98,-30 25,-30 23.98,0 25,3.008 25,55 v 55 h -400 z" /><path
         id="path60"
         style="fill:#000000;fill-opacity:1;fill-rule:nonzero;stroke:none"
         d="m 10173,481.02 c -23,-11.02 -49,-32.04 -58,-46.02 -19,-28.98 -22,-91.02 -5,-121.988 14,-28.012 83,-66.02 153,-86.02 74,-20.972 117,-56.992 117,-95.972 0,-38.0083 -40,-79.0278 -77,-80.0005 -114,-4.0273 -163,20 -163,81.9925 0,13.008 -7,18.98 -22,18.98 -21,0 -23,-3.98 -20,-50 4,-48.9803 4,-49.9998 58,-75.9725 45,-22.03903 64,-26.0195 116,-22.03903 78,5 115,23.01173 146,68.01173 18,26.0195 22,44.0278 18,69.0278 -11,70 -54,105.972 -169,140.972 -74,23.008 -117,56.02 -117,90 0,28.008 52,80 82,81.02 99,5.968 141,-11.992 148,-61.02 4,-26.992 10,-35 25,-35 16,0 21,8.008 23,38.008 4,46.02 -9,63.98 -63,88.012 -55,25 -139,23.98 -192,-1.992 z" /></g></g></svg>