<svg xmlns="http://www.w3.org/2000/svg" xml:space="preserve" width="1392" height="625.333"><path d="M4355 4638.01c-293.98-126.99-545-311.99-716.99-526.99-101.02-126.02-209.03-332.04-251.02-480-46.99-160-73.01-370-61.99-497.04l6.99-85 38.01 94.03c20 51.99 48.98 118.98 63.01 150 13.98 30.97 25 58.01 23.98 60-.97 1.99 0 3.01 1.99 1.99 2.04-1.99 26.02 38.01 54.03 88.98 26.99 50 70.97 124.03 98.01 165 27.96 40 46.99 79.03 42.96 85-3.98 7.04-2.96 8.01 4.03 4.03 13.01-8.01 63.98 63.01 55 76.99-3.01 6.02-1.99 6.99 3.98 3.98 5-2.96 50 39.03 99.03 95 80.97 92.04 200 201.02 281.99 257.04 48.01 32.96 38.98 11.99-19.03-44.03-78.98-78.01-180.97-203.98-173.98-215 3.98-5.97 1.02-8.98-6.02-8.01-18.98 4.03-161.99-212.96-228.98-347.96-91.99-187.04-158.01-384.03-193.01-571.02l-5.97-31.02 90 24.03c245 65 487.96 200 636.99 353.98 160 164.03 273.01 399.03 316.99 660 31.02 179.03 18.01 481.99-28.01 686.02L4475 4690ZM1635 4418.98c-36.99-113.98-56.02-423.98-36.02-580 26.02-200.97 109.03-401.99 233.01-563.98 96.02-126.99 208.01-223.98 366.99-318.01 16.02-8.98 19.03-13.98-67.96 115-164.03 246.02-275 554.03-286.02 800l-5 105 23.98-100c78.01-325 225-605 436.02-828.01l63.98-68.98 18.01 53.98c36.99 105 59.03 207.04 68.01 308.01 30 351.02-106.99 644.03-408.98 871.02-146.02 110-396.02 235.97-406.02 205.97ZM806.988 2271.02c-155.968-14.03-368.008-75-548.976-157.04C188.012 2081.99 0 1975 0 1966.99c0-13.98 73.98-83.98 83.012-78.01 5.969 4.03 6.988 1.02 1.988-5.97-10-16.99 33.98-61.99 160-165 143.012-118.01 243.98-186.02 371.988-250 215-108.01 414.032-156.02 649.032-156.02 200.97 0 347.96 26.99 530 96.99 110 42.04 106.99 51.02-16.02 52.04-186.99 1.99-463.01 50-675 117.96-193.012 62.04-485 213.01-485 251.02 0 11.02 3.012 13.01 8.012 6.02 8.976-15 190.968-93.01 296.988-127.04 263.98-86.99 590-128.98 830-106.99 121.99 11.02 225 26.99 225 36.02 0 8.01-118.01 163.01-173.01 225.97-26.99 32.04-53.98 55-60 51.02-5-3.01-6.99-1.02-3.01 5 3.01 6.02-22.96 35-60 66.02-258.98 220-547.96 313.98-876.992 285zM3413.98 2085c-20.97-61.02-375.97-976.02-380-981.02-.97-1.99-20.97-5.97-42.96-8.98l-41.02-6.02v-96.992h320v96.992l-40 7.04c-23.98 3.98-40 11.99-40 20 0 25 68.98 198.98 81.99 207.96 6.99 4.03 114.03 7.04 238.01 5l225-1.99 36.99-100c20-55 36.99-105 38.01-110.97 0-6.02-18.98-15-41.99-20-43.01-9.03-43.01-9.03-43.01-54.03v-45.002l163.01-3.008 161.99-1.992v50.002c0 45-1.99 50-21.99 50-56.99 0-65 9.03-101.02 103.01-18.98 51.02-100 265-180.97 476.99-81.02 211.99-154.03 404.03-163.01 428.01l-16.02 41.99H3435Zm104.03-160c5.97-16.02 45-120 85.97-233.01 41.02-113.01 77.04-213.01 81.02-221.99 6.99-16.99-6.02-18.01-185-18.01-105 0-190 4.03-188.01 9.03 1.99 3.98 43.01 116.99 93.01 250 48.98 131.99 91.99 240.97 96.02 240.97 3.98 0 10.97-11.99 16.99-26.99zM4150 2101.99c0-45 11.02-53.98 83.01-63.98l46.99-6.99v-919.03l-21.99-3.98C4146.02 1085 4155 1091.02 4155 1041.99v-45.002l203.01-3.008 201.99-1.992v49.032c0 48.98 0 48.98-36.99 55-21.02 3.98-50 8.98-65 11.99l-28.01 5.97v383.01c0 211.02 3.01 386.02 8.01 389.03C4445 1890 4490 1820 4840 1255l163.01-263.012H5150V2030l38.01 6.02c96.99 16.99 91.99 13.98 91.99 61.99v43.98h-410v-43.98c0-48.01-5-45 93.01-61.99L5000 2030v-388.98c0-214.03-1.99-389.03-3.98-389.03-2.04 0-129.03 200-282.04 445l-278.98 445h-285zM5843.98 2070c-15-40-60-156.02-100-258.01-38.98-101.99-101.99-263.98-138.98-360-143.01-375.97-126.99-343.98-176.02-355.97-43.98-11.02-43.98-11.02-43.98-55v-44.032l160-3.008 161.02-1.992-1.02 49.032V1090l-43.01 6.99c-35.97 5-41.99 10-36.99 23.01 3.98 8.98 20 55 36.99 101.99 16.99 46.99 35 91.02 40 98.01 8.01 8.98 68.01 11.99 238.01 11.99h228.01l35.97-100.97c20-55 36.02-107.04 36.02-115 0-8.01-15-16.02-40-20l-40-7.04v-96.992h320v96.022l-41.99 10-41.02 8.98-178.98 470c-98.01 259.03-186.02 491.02-196.02 518.01l-16.99 46.99h-133.01zm190-371.02c47.04-130.97 86.02-240 86.02-242.96 0-2.04-83.01-4.03-185-4.03s-185 1.99-185 5c0 21.99 183.98 494.03 191.02 488.01 3.98-3.98 45.97-115 92.96-246.02zM6590 2098.01c0-48.01-5-45 93.01-61.99L6720 2030v-916.02l-50-10.97c-28.01-6.02-58.01-11.02-65-11.02-11.02 0-15-13.01-15-50v-50.002h410v50.002c0 36.99-3.98 50-15 50-6.99 0-36.99 5-65 11.02l-50 10.97v389.03c0 230.97 3.98 388.01 8.98 385 5-3.01 30-41.02 56.02-84.03 25-41.99 70-113.98 98.01-158.98 151.99-241.99 223.01-355 231.99-371.02 6.02-10 41.02-66.99 78.98-126.99 38.01-60.97 75-120 83.01-131.99 11.99-21.02 21.02-23.012 88.01-23.012h75V2030l38.01 6.02c96.99 16.99 91.99 13.98 91.99 61.99v43.98h-410v-43.98c0-49.03 1.02-50 83.01-61.99L7440 2030v-385c0-286.02-3.01-383.98-11.99-381.02-6.02 2.04-111.99 166.02-235 364.03C7070 1825 6946.99 2021.99 6920 2065l-48.98 76.99H6590ZM7820 2096.99c0-43.01 1.02-43.98 38.01-50 20-3.98 41.99-8.01 48.01-10 10-3.01 116.99-193.98 285.97-508.98L8250 1420v-306.02l-50-10.97c-28.01-6.02-56.02-11.02-63.01-11.02-8.01 0-10.97-15.97-8.98-50l3.98-50.002H8530v50.002c0 36.99-3.98 50-15 50-6.99 0-36.99 5-65 11.02l-50 10.97v285l173.98 319.03c95 175 179.03 320 187.04 320.97 86.99 11.02 83.98 9.03 80.97 58.01l-3.98 45H8450v-40c0-33.98 3.98-41.99 26.02-50 13.98-5.97 40.97-10 60-10 25 0 33.98-3.98 33.98-16.99 0-8.98-26.02-66.02-58.98-126.99-32.04-61.02-84.03-161.99-115-223.01-32.04-61.99-61.02-113.01-64.03-113.01-8.98 0-241.99 451.99-241.99 468.01 0 6.99 13.01 11.99 28.98 11.99 16.02 0 43.01 3.01 60 6.02 29.03 5.97 31.02 8.98 31.02 50v43.98h-390zM9401.02 2053.98c-18.01-47.96-48.01-125-66.02-171.99-18.98-46.99-90-230.97-158.98-410-70-178.98-131.02-335-136.02-346.99-8.98-21.02-21.99-26.99-75-35-18.98-3.01-23.01-26.99-16.02-90 1.02-5 73.01-8.012 161.02-8.012h160V1090l-45 6.02-43.98 6.99 33.98 93.98c55 151.99 20 136.02 286.99 133.01l231.02-3.01 38.98-105c21.02-58.01 38.01-108.01 38.01-111.99 0-3.98-20-10-45-13.98l-45-6.02v-98.012h330v96.992l-41 6.02c-22.98 3.01-45.02 11.02-50.02 18.01-3.98 6.99-57.96 145.97-118.98 308.01-61.99 162.96-145 381.99-185 485.97-40 105-76.02 200-78.98 213.01-7.04 20-14.03 21.99-74.03 21.99H9435ZM9586.99 1730c45-123.01 85-235 88.01-250l6.99-28.01H9495c-103.01 0-185 4.03-183.01 8.01 1.99 5 43.01 118.01 91.99 250 49.03 133.01 92.04 241.99 95 241.99 3.01 0 43.01-100 88.01-221.99zM2470 491.02c-83.01-34.028-131.02-107.04-138.01-214.028-5-85 8.01-138.012 49.03-193.98 52.96-73.012 160-101.993 245.97-66.02 59.03 25 73.01 43.008 73.01 91.988 0 35-3.01 43.012-18.98 43.012-14.03 0-20-10-25-38.012-7.04-46.988-34.03-61.988-109.03-61.988-103.98 0-160.97 71.988-160 201.02 0 128.008 58.01 198.98 161.02 198.98 78.98 0 111.99-20.972 111.99-71.992 0-21.02 5-28.008 20-28.008 16.99 0 20 6.988 20 43.008 0 48.98-13.98 66.992-73.01 91.992-40.97 16.988-118.98 19.028-156.99 4.028zM2970 480c-116.99-63.008-155-250-76.02-380 39.03-65 96.02-98.008 170-98.008C3196.02 3.012 3280 101.02 3280 256.02c0 140.972-78.98 235.972-203.01 243.98-50.97 3.012-70-1.02-106.99-20zm186.02-53.008C3221.99 383.98 3245 225 3198.01 133.98c-28.01-55-71.99-83.98-130-83.98C2970 48.012 2910 125 2910 251.992c0 76.02 33.98 161.02 71.99 181.02 56.02 30 123.01 28.008 174.03-6.02zM3545 485c-86.99-45-128.01-118.98-128.01-233.008 0-83.012 14.03-126.992 58.01-178.012 56.99-67.96 158.98-90.968 241.99-56.988 59.03 25 73.01 43.008 73.01 91.988 0 35-3.01 43.012-18.98 43.012-14.03 0-21.02-10-25-35-10-50-58.01-71.992-148.01-66.992-74.03 5-136.02 118.98-125 228.98 11.99 112.04 68.98 173.012 163.98 173.012 66.99 0 100-20 109.03-65.972 3.98-24.028 11.99-34.028 25-34.028 15.97 0 18.98 8.008 18.98 44.028 0 46.992-16.02 65-83.01 93.98-38.98 16.992-125.97 13.98-161.99-5zM4063.98 483.012c-161.99-75-163.98-379.032-3.98-461.02C4141.99-20 4260 6.02 4315 78.012c88.98 115.968 66.99 310.968-43.01 388.008-55 38.98-145.97 46.992-208.01 16.992zm168.01-46.02c9.03-3.012 29.03-25 45-46.992 24.03-36.02 28.01-51.988 31.02-126.988 3.01-74.032 0-91.992-20-131.02C4260 78.012 4216.02 50 4155 50c-93.98 0-145 58.98-153.01 176.02-5.97 90.972 10 146.992 53.01 190 43.98 43.98 105 50.972 176.99 20.972zM4500 483.012c0-16.02 8.01-23.012 30-26.992l30-6.02V53.98l-30-6.988c-21.02-5-30-13.011-30-25.972 0-17.04 8.01-19.028 85-19.028s85 1.988 85 19.028c0 12.96-8.98 20.972-26.99 25-26.99 5.972-28.01 7.96-28.01 80V200l86.99 3.98c101.02 6.02 144.03 26.02 170 78.012 36.02 70 11.99 156.988-53.01 195-28.98 16.988-56.99 20-175.97 24.028-141.02 2.96-143.01 2.96-143.01-18.008zm301.02-60c31.99-31.992 37.96-79.032 17.96-124.032-15.97-35-50-46.988-131.99-46.988H4615v200h78.01c73.01 0 80-1.992 108.01-28.98zM5020 481.992c0-13.98 8.01-21.992 28.01-25.972l26.99-5-3.01-199.028-3.01-198.011-23.98-5.97c-16.02-4.03-25-13.011-25-26.019 0-18.98 6.99-20 185-20h185v60c0 51.988-1.99 60-18.98 60-20 0-31.02-18.012-31.02-50.973 0-18.007-8.01-19.027-105-19.027h-105v180h95c95 0 95 0 95 25s0 25-95 25h-95v170h210v-35c0-30.972 3.01-35 25-35 23.98 0 25 3.008 25 60v60h-185c-178.98 0-185-.972-185-20zM5736.99 495c-1.99-5-40.97-105-86.99-225-61.02-161.02-86.99-218.008-101.02-221.02C5538.01 46.02 5530 35 5530 23.013c0-19.032 6.02-21.02 65-21.02 58.98 0 65 1.988 65 21.02 0 11.988-8.01 23.008-18.98 25.969-18.01 5-18.01 6.019-1.02 51.019l18.01 46.992L5761.99 150l104.03 3.012L5878.98 115c8.01-21.02 16.02-43.008 18.01-50 3.01-6.02-5-13.98-15.97-18.008-12.04-3.012-21.02-15-21.02-25.973 0-17.039 6.99-19.027 70-19.027 61.02 0 70 1.988 70 18.008 0 11.02-10 23.012-23.01 28.98-16.99 8.012-33.98 42.04-70.97 139.032-123.01 326.988-117.04 313.98-142.04 313.98-11.99 0-25-3.012-26.99-6.992zm71.02-186.02 40-106.988h-84.03c-45.97 0-83.98 1.988-83.98 4.028 0 1.992 16.02 45.972 35 97.96 20 51.02 38.01 99.032 40 107.04 8.01 20 10 15.972 53.01-102.04zM6110 446.992c0-51.992 1.02-55 25-55 21.02 0 25 5 25 30v30h120V53.98l-31.02-6.988c-20.97-5-28.98-11.992-26.99-23.011C6225 10 6240 6.02 6308.01 3.98 6385 1.02 6390 3.01 6390 21.018c0 13.981-8.98 22.962-25 26.993l-25 5.969v398.011h120v-30c0-25 3.98-30 25-30 23.98 0 25 3.008 25 55v55h-400zM6870 483.012c0-13.012 8.98-21.02 30-26.02l30-6.992V55l-28.98-6.02c-22.04-5-29.03-11.988-28.01-26.988.97-18.98 6.99-20 188.98-20H7250v60c0 56.988-1.02 60-25 60-21.99 0-25-3.98-25-35v-35h-210v180h95c95 0 95 0 95 25s0 25-93.98 25h-95l-6.02 170h106.02c78.98 0 106.99-3.012 105.97-11.992-.97-46.988 4.03-58.008 28.01-58.008s25 3.008 25 60v60h-190c-181.02 0-190-.972-190-18.98zM7390 476.992c0-18.012 5-25 20-25 13.01 0 33.98-20.972 61.02-61.992 22.96-35 55-80 70.97-100l29.03-36.988-71.02-101.02C7453.01 85 7421.02 50 7405 46.02c-16.02-4.028-25-13.008-25-25 0-17.04 8.01-19.028 80-19.028 73.01 0 80 1.988 80 20 0 14.027-6.99 20-21.02 20-15 0-18.98 5-15 15 8.01 21.988 84.03 133.008 95 140 9.03 5 111.02-133.98 111.02-150 0-3.012-8.98-5-20-5-13.01 0-20-6.992-20-20 0-18.012 6.99-20 75-20s75 1.988 75 20c0 11.988-8.98 21.988-21.99 25-14.03 4.027-48.01 41.989-88.01 100-35 51.02-66.02 96.988-66.99 101.988-1.02 4.032 28.01 51.02 65 103.012 45 64.028 75 96.02 90 98.008 15.97 1.992 21.99 10 21.99 28.012 0 23.008-1.99 23.98-75 23.98s-75-.972-75-25c0-18.012 5-25 20-25 18.01 0 13.98-10-30-75.972-28.01-41.02-55-74.028-60-72.04-6.99 3.012-100 136.02-100 144.032 0 1.988 8.98 3.98 20 3.98 15 0 20 6.988 20 25 0 24.028-1.99 25-75 25s-75-.972-75-25zM7940 483.012c0-16.02 8.01-23.012 30-26.992l30-6.02V53.98l-30-6.988c-21.02-5-30-13.011-30-25.972 0-17.04 8.01-19.028 85-19.028s85 1.988 85 19.028c0 12.96-8.98 20.972-26.99 25-26.99 5.972-28.01 7.96-28.01 80V200l86.99 3.98c101.02 6.02 144.03 26.02 170 78.012 36.02 70 11.99 156.988-53.01 195-28.98 16.988-56.99 20-175.97 24.028-141.02 2.96-143.01 2.96-143.01-18.008zm301.02-60C8263.98 400 8270 385 8270 351.992c0-33.012-6.02-48.012-28.98-70.972-28.01-27.04-35-29.028-108.01-29.028H8055v200h78.01c73.01 0 80-1.992 108.01-28.98zM8583.98 483.012C8456.02 425 8418.98 201.992 8515 75c53.98-70 166.02-93.008 251.02-51.988 170.97 81.988 162.96 390.968-13.01 463.98-48.01 20-119.03 18.008-169.03-3.98zm172.04-50c16.99-11.02 40.97-40 53.98-66.02 18.98-40 21.99-58.012 18.01-128.98C8821.02 110 8775 51.992 8676.99 50c-93.98-1.02-146.99 58.98-155 176.02-5.97 91.992 10 146.992 54.03 190.972 31.99 31.988 40 35 91.99 35 38.01 0 66.99-5.972 88.01-18.98zM9020 481.992c0-15 8.98-21.992 30-25.972l30-6.02V55l-30-6.02c-21.02-5-30-11.988-30-26.988 0-18.012 6.02-20 85-20s85 1.988 85 20c0 15-8.98 21.988-30 26.988L9130 55v176.992h70c113.98 0 135-18.98 143.01-133.98 3.98-65 28.01-96.02 73.01-96.02 30 0 32.96 30 3.98 48.008-16.02 8.98-20 23.012-20 61.02 0 65.972-16.99 110-51.02 130L9320 258.98l26.02 13.012c61.99 34.028 70 128.008 15.97 181.988-38.01 38.012-81.99 47.04-223.98 48.012-111.99 0-118.01-.972-118.01-20zm301.02-58.98c26.99-33.012 25-86.02-6.02-116.02-21.02-21.992-33.01-25-101.99-25h-79.03l1.02 86.02v85.968l83.01-3.98c73.98-3.008 85.97-6.02 103.01-26.988zM9560 446.02c0-52.04 1.02-55 23.01-52.04 15.97 2.04 23.01 11.02 25 31.02 3.01 26.02 5 26.992 63.01 26.992H9730V53.98l-30-6.988c-21.02-5-30-13.011-30-25.972 0-17.04 8.01-19.028 85-19.028 78.01 0 85 1.988 85 20 0 13.008-8.98 21.989-25 26.02l-23.98 5.969-3.01 199.031-3.01 198.98h125v-30c0-25 3.98-30 25-30 23.98 0 25 3.008 25 55v55h-400zM10173 481.02c-23-11.02-49-32.04-58-46.02-19-28.98-22-91.02-5-121.988 14-28.012 83-66.02 153-86.02 74-20.972 117-56.992 117-95.972 0-38.008-40-79.028-77-80-114-4.028-163 20-163 81.992 0 13.008-7 18.98-22 18.98-21 0-23-3.98-20-50 4-48.98 4-50 58-75.972 45-22.04 64-26.02 116-22.04 78 5 115 23.012 146 68.012 18 26.02 22 44.028 18 69.028-11 70-54 105.972-169 140.972-74 23.008-117 56.02-117 90 0 28.008 52 80 82 81.02 99 5.968 141-11.992 148-61.02 4-26.992 10-35 25-35 16 0 21 8.008 23 38.008 4 46.02-9 63.98-63 88.012-55 25-139 23.98-192-1.992z" style="fill:#000;fill-opacity:1;fill-rule:nonzero;stroke:none" transform="matrix(.13333 0 0 -.13333 0 625.333)"/></svg>