<svg version="1.1" id="Layer_1" xmlns="http://www.w3.org/2000/svg" xmlns:xlink="http://www.w3.org/1999/xlink" x="0px" y="0px"
	 width="100%" viewBox="0 0 674 370" enable-background="new 0 0 674 370" xml:space="preserve">
<path fill="#000000" opacity="1.000000" stroke="none" 
	d="
M404.000000,371.000000 
	C269.365448,371.000000 135.230881,371.000000 1.048162,371.000000 
	C1.048162,247.728302 1.048162,124.456589 1.048162,1.092435 
	C225.551239,1.092435 450.102509,1.092435 674.826904,1.092435 
	C674.826904,124.333145 674.826904,247.666550 674.826904,371.000000 
	C584.789856,371.000000 494.644928,371.000000 404.000000,371.000000 
M239.948761,222.446777 
	C239.645599,222.294052 239.342422,222.141327 238.798203,221.344162 
	C236.361237,220.169846 233.797485,217.793762 231.509857,218.035095 
	C222.893356,218.944077 222.929230,219.263107 223.060287,227.886414 
	C223.075394,228.880981 223.039062,229.876205 223.043671,230.871063 
	C223.070450,236.651611 227.328094,239.374939 233.105896,238.549637 
	C237.550323,237.914780 238.371384,234.191681 241.566986,232.084091 
	C242.885757,232.725204 244.204529,233.366318 245.950287,234.482391 
	C248.267838,235.942551 250.454697,238.222351 252.941833,238.618927 
	C255.169647,238.974136 257.887970,237.535217 260.053650,236.298904 
	C260.807037,235.868835 260.554474,233.676651 260.849396,231.698471 
	C254.625778,234.932587 249.158630,234.690674 248.492340,231.145020 
	C247.975601,228.395096 248.940079,224.205673 250.874435,222.443741 
	C253.418045,220.126816 257.132874,220.946335 258.915802,225.136459 
	C262.359039,222.289917 260.589355,220.351669 258.112091,219.003632 
	C252.976578,216.209045 248.630722,217.767731 244.286621,221.996292 
	C243.299255,221.429947 242.311874,220.863602 241.436325,220.361404 
	C240.974731,221.232590 240.522934,222.085236 240.013016,223.004425 
	C240.013016,223.004425 240.091690,222.964142 239.948761,222.446777 
M491.323792,222.821045 
	C492.194275,223.012146 493.064758,223.203232 493.131012,223.217789 
	C493.131012,227.789932 493.131012,231.904938 493.110199,236.824295 
	C495.640198,237.257233 498.170166,237.690170 500.700165,238.123108 
	C500.813232,237.676651 500.926300,237.230179 501.039368,236.783707 
	C495.370087,232.341141 498.997223,226.554733 497.785309,220.382477 
	C500.460876,221.426559 502.073822,222.055969 504.377655,222.954987 
	C504.561340,221.031097 504.707825,219.496719 504.986847,217.271988 
	C498.685059,217.271988 492.383240,217.271988 486.420685,217.271988 
	C486.420685,219.139450 486.329987,220.626999 486.493591,222.086060 
	C486.528290,222.395218 487.491821,222.600204 488.664612,222.946259 
	C489.456635,222.665070 490.248657,222.383896 491.323792,222.821045 
M212.293442,235.273361 
	C206.895691,238.007660 206.439224,232.944427 205.341217,230.289276 
	C203.778595,226.510605 205.451233,222.601685 208.948441,220.970566 
	C211.783173,219.648422 214.932785,221.009476 215.575821,225.196564 
	C219.078613,223.211197 218.068985,221.283005 216.081558,219.588730 
	C211.416611,215.611893 203.666000,218.140274 202.434052,224.105850 
	C201.938446,226.505707 201.845566,229.067612 202.052460,231.514923 
	C202.351089,235.047546 206.815643,239.276779 210.264038,238.734497 
	C213.491699,238.226913 218.022842,238.483627 218.924103,233.019012 
	C223.713654,231.425674 219.637512,227.865738 221.772995,224.315598 
	C217.364426,227.923141 214.197220,230.514893 211.000519,233.130768 
	C211.658463,233.738815 212.308289,234.339371 212.293442,235.273361 
M397.841003,222.975525 
	C398.545502,221.963120 399.249969,220.950714 399.287445,220.896851 
	C401.199524,221.703232 402.569672,222.281067 404.608124,223.168060 
	C411.571747,229.093704 403.933563,232.844315 401.421875,237.716858 
	C404.402771,237.716858 406.335114,237.716858 408.267487,237.716858 
	C408.591858,235.610077 409.514923,233.630997 410.867523,233.272491 
	C413.639679,232.537735 413.967590,234.480240 413.591461,236.822174 
	C413.540344,237.140350 415.308319,238.073517 416.281769,238.155609 
	C417.646759,238.270676 419.056519,237.854675 420.085663,237.714935 
	C418.293457,234.503540 415.178192,231.369690 415.181976,228.239594 
	C415.185760,225.109299 418.308441,221.982773 420.168823,218.667664 
	C419.659058,218.537231 418.766174,218.137512 417.861511,218.108704 
	C414.875244,218.013672 411.884735,218.052689 408.772583,217.265228 
	C404.887268,217.522614 401.001953,217.779984 396.627319,217.380142 
	C391.759918,217.607254 386.892517,217.834366 383.007324,218.015656 
	C383.007324,225.257629 383.007324,231.443985 383.007324,237.615173 
	C387.594482,237.615173 392.635895,237.615173 398.397400,237.615173 
	C397.700867,235.723602 397.212555,234.397522 397.084747,234.050446 
	C393.420502,234.972504 390.556274,235.693237 387.368591,236.495377 
	C387.368591,233.341904 387.368591,231.296478 387.368591,229.471222 
	C390.017914,228.998413 392.254211,228.599304 394.490509,228.200211 
	C394.438629,227.870651 394.386749,227.541092 394.334869,227.211533 
	C392.064972,227.065903 389.795105,226.920288 387.309479,226.760818 
	C387.309479,224.783920 387.309479,223.065536 387.309479,220.016617 
	C391.012207,221.121078 394.058563,222.029755 397.841003,222.975525 
M188.008514,170.990677 
	C188.008514,170.990677 188.094696,170.991028 188.017776,170.207687 
	C187.879059,168.878937 187.740341,167.550186 187.590286,166.112732 
	C188.718536,166.112732 189.841202,166.112732 190.966721,166.882507 
	C191.614105,172.478165 192.489075,178.058731 192.860870,183.672638 
	C193.602921,194.877167 188.414429,204.332077 182.914398,213.388199 
	C174.968994,226.470749 163.535294,236.460724 151.323608,245.876389 
	C150.965485,245.688400 150.607376,245.500412 150.249268,245.312439 
	C150.481155,245.918274 150.713058,246.524109 151.389465,247.754807 
	C153.701248,247.243713 156.394485,247.322983 158.258362,246.118668 
	C166.040375,241.090439 173.587112,235.696518 181.194046,230.399277 
	C192.912643,222.238846 202.569290,211.884827 210.241806,200.055054 
	C216.725769,190.057785 222.130035,179.260559 227.080261,168.392883 
	C233.615295,154.045914 235.832611,138.562439 236.976852,122.000160 
	C236.966965,115.812630 236.957092,109.625099 236.947220,103.437569 
	C236.142914,103.433548 235.338608,103.429535 234.534302,103.425514 
	C234.411148,105.898964 234.287979,108.372414 234.043015,111.607658 
	C230.081497,136.713364 222.688431,160.456100 206.729950,182.319931 
	C204.067154,171.408203 198.730331,163.870392 191.032837,158.286560 
	C188.290192,156.297028 184.361069,155.943100 180.253494,154.974258 
	C175.425400,150.025574 169.300781,149.693939 162.223450,149.937943 
	C159.786621,149.271973 157.365509,148.113159 154.909943,148.034821 
	C148.234512,147.821854 141.237427,146.842117 134.933960,148.423233 
	C126.015358,150.660339 117.604507,154.921677 108.875946,158.357437 
	C109.522041,159.949249 109.650002,160.824188 110.138306,161.385880 
	C123.022728,176.206329 138.128647,186.849289 158.747986,186.986252 
	C167.239548,187.042648 175.629227,186.585938 183.323456,182.330170 
	C185.052185,181.373993 187.281540,180.801315 183.999008,178.263458 
	C183.471771,177.642059 182.944519,177.020660 182.420578,176.403137 
	C182.865555,176.029968 183.419357,175.565521 184.591507,175.009644 
	C185.745682,174.963898 186.899841,174.918152 188.712006,174.611847 
	C188.478928,173.376099 188.245865,172.140335 188.008514,170.990677 
M314.730713,224.996338 
	C315.083160,224.823303 315.435608,224.650269 315.788055,224.477249 
	C315.229126,223.995834 314.670197,223.514420 314.105316,222.225479 
	C316.503632,220.465591 318.751068,219.991028 321.042786,222.562088 
	C321.379242,222.939606 323.577454,222.484482 323.678528,222.094376 
	C324.021332,220.771515 323.809418,219.304901 323.809418,218.017273 
	C320.572357,218.017273 317.975159,218.017273 315.377991,218.017273 
	C312.944702,218.017273 310.511414,218.017273 307.080017,218.017273 
	C312.124695,222.528564 312.331879,232.530457 308.242554,237.668488 
	C313.526306,237.668488 318.563049,237.668488 324.837341,237.668488 
	C323.564850,235.484085 322.696869,233.994171 321.828918,232.504242 
	C321.644287,233.158524 321.459656,233.812790 321.275024,234.467072 
	C319.051392,235.083282 316.827789,235.699493 314.271240,236.407959 
	C314.271240,233.276657 314.271240,231.347015 314.271240,229.321594 
	C315.173798,229.186417 315.882904,229.235901 316.436493,228.966156 
	C317.749603,228.326309 318.988953,227.535110 320.258118,226.805084 
	C318.864166,226.497543 317.457001,226.238251 316.081818,225.862106 
	C315.395233,225.674332 314.767059,225.272995 314.730713,224.996338 
M288.853973,220.739548 
	C289.133545,220.723145 289.418091,220.671082 289.690002,220.709259 
	C289.788055,220.723022 289.937042,220.961197 289.925446,221.083984 
	C289.408691,226.548553 288.876587,232.011658 288.321136,237.734436 
	C290.761871,237.734436 292.999054,237.734436 295.280914,237.734436 
	C292.420319,231.047745 292.465546,231.262802 299.405609,229.803223 
	C301.138672,229.438721 303.771454,227.142456 303.712952,225.836105 
	C303.609558,223.528564 302.202454,219.833755 300.546631,219.329758 
	C296.586853,218.124527 292.165009,218.437408 287.195801,218.017685 
	C285.043427,218.696625 282.891052,219.375565 280.007690,219.880905 
	C276.472809,217.022034 272.428131,217.036819 269.244568,219.651703 
	C267.412445,221.156525 266.384521,224.412354 266.174957,226.976456 
	C265.538055,234.769836 267.276123,236.956970 273.378204,238.692917 
	C278.808899,240.237854 280.351318,235.732788 283.831390,233.017960 
	C284.456055,233.859573 285.080719,234.701187 284.933441,234.502747 
	C285.915619,230.484711 287.081177,225.716537 288.853973,220.739548 
M513.012695,230.526962 
	C513.012695,230.526962 513.103394,230.979279 512.277039,230.929016 
	C511.539520,232.263641 509.960083,233.860504 510.273804,234.867706 
	C510.682281,236.179184 512.436340,237.430069 513.887817,237.989243 
	C517.844910,239.513611 522.515381,237.965515 523.471924,234.999161 
	C525.072876,230.034470 521.420349,228.759445 517.941223,227.440231 
	C516.872620,227.035034 515.622986,226.908752 514.742920,226.263687 
	C513.957275,225.687805 512.959290,224.406540 513.143066,223.733658 
	C513.426819,222.694534 514.760010,221.083954 515.431763,221.182983 
	C516.945923,221.406204 518.279846,222.649063 519.779602,223.243668 
	C520.809021,223.651810 521.993958,223.667633 523.109375,223.858826 
	C523.160339,222.861923 523.511536,221.762497 523.211914,220.885345 
	C521.679810,216.399734 517.788513,218.052216 514.813904,218.179153 
	C513.189819,218.248428 510.444519,219.710251 510.271759,220.855774 
	C509.781647,224.106049 509.131012,227.908600 513.012695,230.526962 
M458.595703,219.894409 
	C456.060455,216.280426 452.853027,216.879364 449.385895,218.286987 
	C444.091644,220.436417 443.614319,223.903122 444.763428,229.237808 
	C445.756927,233.850220 446.846100,237.724274 451.677002,238.669662 
	C456.216400,239.558044 459.584595,237.193161 462.029236,233.514267 
	C462.689941,232.505936 463.648010,231.578995 463.950745,230.472717 
	C464.625885,228.005447 464.973785,225.448639 465.454987,222.928314 
	C465.966644,222.976883 466.478271,223.025436 466.989929,223.074005 
	C466.989929,226.105240 466.931702,229.139221 467.075378,232.163635 
	C467.090607,232.484116 468.290222,232.748337 468.937958,233.800980 
	C468.425140,235.013885 467.912354,236.226807 467.282684,237.716141 
	C469.822998,237.716141 472.186920,237.716141 474.435852,237.716141 
	C474.945709,235.987030 475.386688,234.491425 475.986603,233.775711 
	C476.970612,234.469727 477.954620,235.163742 479.584930,236.238815 
	C481.103333,236.996063 482.621735,237.753311 484.598633,238.739227 
	C483.397675,233.493530 480.404266,229.833084 482.687683,224.867569 
	C483.338623,223.451965 481.217834,219.037842 479.746826,218.699463 
	C475.632660,217.753067 471.193573,218.219116 466.117767,218.032318 
	C463.843384,218.746887 461.568970,219.461456 458.595703,219.894409 
M460.181030,157.571823 
	C460.677490,156.163788 461.352905,154.777451 461.528259,153.330490 
	C461.566040,153.018921 459.808289,152.142593 458.861847,152.117386 
	C454.095093,151.990372 449.323090,152.059052 443.823425,152.059052 
	C444.190704,154.121262 444.526276,156.005524 445.103119,158.530746 
	C447.348877,162.917480 445.347656,167.193863 438.805054,172.371704 
	C437.178772,169.300720 435.523468,166.174881 434.012512,162.246307 
	C434.795532,160.807968 435.868988,159.448334 436.285614,157.910721 
	C436.768646,156.127869 436.674774,154.188690 436.831360,152.317383 
	C435.565948,152.254807 434.300568,152.192245 432.233093,152.361801 
	C427.965912,152.696335 423.698730,153.030869 419.212463,153.382568 
	C418.948792,154.613922 418.664124,155.943436 418.652557,155.997482 
	C420.994324,158.375351 422.870178,159.724182 424.009125,161.536179 
	C428.179535,168.170929 432.452698,174.785904 435.946899,181.778275 
	C437.301392,184.488724 437.023743,188.211243 436.768005,191.415100 
	C436.686920,192.430862 434.150391,193.130585 432.963043,194.220566 
	C432.179993,194.939438 431.310547,196.143097 431.395508,197.043243 
	C431.462097,197.748718 432.907623,198.822601 433.784821,198.867523 
	C437.772888,199.071823 441.788269,199.140045 445.767242,198.868042 
	C446.876160,198.792236 447.893982,197.384567 448.953613,196.587891 
	C448.118256,195.738235 447.273773,194.897339 446.449799,194.036819 
	C445.330353,192.867752 443.244629,191.637604 443.297333,190.514481 
	C443.466034,186.917709 443.879730,183.135330 445.217194,179.837616 
	C447.120605,175.144547 449.693481,170.668747 452.424072,166.382828 
	C454.553070,163.041214 457.358246,160.130417 460.181030,157.571823 
M260.978149,176.234833 
	C260.387421,175.268951 259.588898,174.372208 259.240692,173.325638 
	C257.397644,167.786499 255.852951,162.139191 253.778549,156.691696 
	C253.205292,155.186264 251.326294,153.605057 249.762207,153.223480 
	C248.405807,152.892563 245.663239,153.800842 245.221725,154.863174 
	C241.582260,163.619888 238.626312,172.665985 234.854111,181.360107 
	C232.860107,185.955856 232.857498,191.861633 227.262299,194.573029 
	C226.478867,194.952652 225.977036,196.962372 226.210144,198.028320 
	C226.370148,198.760025 227.974045,199.455444 229.028305,199.651169 
	C230.942078,200.006454 232.927094,200.085861 234.882568,200.087646 
	C240.146698,200.092468 241.276978,198.253464 239.095764,193.403641 
	C237.763077,190.440475 239.136993,186.441147 241.978745,186.196991 
	C246.267609,185.828506 250.823212,185.334778 254.848297,186.428925 
	C257.001068,187.014099 258.280365,190.812698 259.716888,192.828522 
	C258.188873,194.447769 256.925049,195.787048 255.661240,197.126328 
	C255.808792,197.688919 255.956360,198.251511 256.103912,198.814102 
	C260.446686,198.814102 264.792999,198.899063 269.128235,198.718231 
	C269.745300,198.692505 270.860138,197.293152 270.766479,196.678635 
	C270.628754,195.775192 269.692352,194.918869 268.938690,194.209915 
	C268.429932,193.731308 267.649902,193.541031 267.703583,193.036255 
	C267.997589,192.945282 268.305176,192.882553 268.579437,192.750549 
	C268.703156,192.691025 268.868256,192.444687 268.832428,192.365585 
	C267.207397,188.777451 265.623138,185.168610 263.891907,181.631821 
	C263.098602,180.011185 262.011566,178.534317 260.978149,176.234833 
M402.975677,158.900146 
	C402.975677,166.414703 402.975677,173.929260 402.975677,181.537918 
	C401.837494,181.295013 400.934326,181.102280 400.061493,180.190918 
	C395.705963,173.061951 391.511230,165.826859 386.911224,158.859299 
	C385.209656,156.282013 382.910095,153.382141 380.229462,152.382370 
	C377.833710,151.488861 374.537903,153.008698 371.445526,153.494049 
	C370.314148,156.700729 371.022217,158.496674 375.020416,158.936737 
	C375.028015,170.591858 375.035645,182.246994 374.204773,193.962692 
	C370.115021,193.856735 370.825897,196.191574 371.565704,198.984009 
	C375.726837,198.984009 379.658325,199.178131 383.553223,198.885178 
	C385.039764,198.773361 386.442352,197.545471 387.883179,196.826218 
	C386.619507,195.875473 385.355804,194.924713 384.222290,193.287582 
	C385.089905,193.070084 385.957550,192.852585 385.854553,192.878403 
	C385.180664,191.044617 384.180603,189.476593 384.091858,187.858582 
	C383.855530,183.548904 384.121033,179.213837 383.968628,174.896576 
	C383.883575,172.487747 384.539886,171.427734 386.984894,172.910141 
	C392.367676,181.260620 397.750458,189.611115 403.233582,198.670975 
	C405.933136,199.072708 408.632690,199.474442 410.536591,199.757767 
	C411.077820,185.442047 411.595490,171.749374 412.934784,158.003143 
	C417.688995,158.360672 417.302795,155.493637 416.785583,152.308304 
	C410.736389,152.593262 404.987244,152.864075 399.188141,153.137253 
	C399.188141,154.499741 399.188141,156.089569 399.188141,157.971130 
	C400.556396,157.971130 401.684265,157.971130 402.975677,158.900146 
M286.626099,169.184998 
	C288.103973,171.630096 289.581848,174.075180 291.240906,176.820068 
	C291.400604,176.732956 292.205017,176.294098 293.597809,176.273285 
	C298.114288,183.598282 302.432343,191.060532 307.321198,198.127945 
	C308.255493,199.478561 311.428131,199.445496 313.600067,199.599197 
	C313.928802,199.622498 314.432556,197.172852 315.316193,195.148636 
	C315.475677,183.196335 315.643311,171.244110 315.758850,159.291382 
	C315.762695,158.893921 315.238800,158.491364 315.761688,158.006989 
	C319.715607,158.172974 320.664124,156.345840 319.465179,153.025375 
	C314.906342,153.025375 310.648468,153.208405 306.415192,152.964355 
	C303.326416,152.786285 302.714142,154.255310 302.349579,157.140762 
	C305.792572,158.521027 307.370087,160.957092 307.020691,164.753281 
	C306.541229,169.963089 306.261047,175.191254 305.907318,180.242493 
	C304.933777,179.878189 303.914703,179.496826 302.386780,178.646545 
	C297.585205,170.694870 292.856842,162.696884 287.891388,154.848892 
	C287.255676,153.844177 285.416168,153.215225 284.081573,153.114975 
	C280.811920,152.869400 277.511414,153.034760 274.267853,153.034760 
	C273.822113,155.861649 272.927277,158.452087 277.006775,158.855713 
	C277.313293,160.410141 277.827271,161.956909 277.885132,163.520538 
	C278.025452,167.313095 278.143188,171.124481 277.923706,174.908203 
	C277.573517,180.945496 279.680511,187.333405 275.718292,192.657257 
	C276.466492,193.055328 277.251770,193.473114 277.419098,194.177170 
	C275.937531,194.864517 274.455963,195.551880 272.974396,196.239212 
	C273.901550,197.470428 274.746826,199.679474 275.769867,199.765121 
	C280.425873,200.154968 285.135773,200.044815 289.815887,199.856339 
	C290.573486,199.825821 291.926086,198.436707 291.868317,197.774658 
	C291.760040,196.533859 291.047119,195.142914 290.155609,194.238220 
	C289.455353,193.527649 288.107697,193.455093 286.296051,192.640732 
	C286.190979,184.992813 286.085876,177.344910 286.074615,169.488998 
	C286.074615,169.488998 285.932800,169.310272 286.626099,169.184998 
M201.173691,118.629982 
	C201.987320,119.391670 202.800934,120.153351 203.916077,121.197319 
	C208.246033,111.186195 209.739395,101.314934 206.612900,91.175972 
	C201.970123,76.119858 189.987122,68.296066 176.736740,61.966049 
	C176.152542,61.686958 173.738083,63.313129 173.688156,64.142799 
	C173.243546,71.531448 173.004883,78.940666 173.008682,86.343666 
	C173.010010,88.926537 173.748672,91.534035 174.337418,94.087212 
	C176.754959,104.571167 183.362915,112.129265 191.675125,118.402054 
	C192.839737,119.280930 194.489090,119.517479 196.057343,120.776886 
	C196.861343,121.503212 197.665359,122.229538 198.137695,122.656242 
	C199.152634,120.953751 200.033249,119.476562 201.173691,118.629982 
M248.651917,115.744217 
	C248.114761,118.036629 247.577606,120.329041 247.033203,122.652428 
	C257.358765,123.378883 275.182312,113.534775 283.071686,100.241768 
	C292.038055,85.134041 292.963135,68.699951 287.562714,51.536648 
	C273.155243,56.640266 261.230286,64.171181 252.415085,76.124252 
	C243.483032,88.235733 240.412369,101.837311 241.275497,116.397354 
	C241.889771,116.550034 242.504044,116.702721 243.118317,116.855400 
	C243.431641,115.585892 243.744965,114.316383 244.713379,113.028839 
	C246.101547,113.686455 247.489700,114.344078 248.651917,115.744217 
M363.950928,192.776794 
	C363.464233,192.108337 362.799011,191.507278 362.517487,190.761383 
	C357.965454,178.700653 353.509125,166.603394 348.864807,154.578644 
	C348.462616,153.537262 346.761963,152.162872 345.890167,152.307144 
	C343.939087,152.630005 341.066254,153.347916 340.460632,154.732422 
	C338.545380,159.110962 337.638641,163.917755 336.071899,168.465927 
	C334.936005,171.763458 333.257172,174.870239 332.025085,178.139221 
	C330.243317,182.866623 328.681305,187.676590 326.929596,192.415894 
	C326.696594,193.046371 325.821930,193.409912 325.383301,194.000275 
	C324.421722,195.294540 323.549225,196.655014 321.974274,198.965714 
	C327.108582,198.965714 330.420105,199.000702 333.730499,198.954300 
	C336.244751,198.919067 338.161041,197.312012 336.444092,195.285873 
	C333.407684,191.702667 335.770294,189.117676 336.629517,185.971924 
	C341.622772,185.971924 346.289368,185.794800 350.925049,186.094849 
	C352.103271,186.171097 353.360992,187.616226 354.261688,188.698990 
	C355.295959,189.942398 355.973969,191.482178 356.328735,192.083344 
	C355.084442,194.700333 354.060944,196.852951 352.983032,199.119995 
	C357.808838,199.421448 361.711090,199.779297 365.616180,199.813446 
	C366.402313,199.820343 367.674530,198.708923 367.858673,197.913177 
	C368.046356,197.102066 367.358185,195.875702 366.704407,195.142441 
	C366.054291,194.413284 364.970062,194.071198 363.950928,192.776794 
M474.120911,173.784805 
	C472.791931,182.756378 468.670990,190.665833 463.170227,198.955750 
	C468.141968,198.955750 471.653839,199.225937 475.074341,198.785828 
	C476.059784,198.659027 477.681061,195.574356 477.491425,195.387482 
	C474.129822,192.074585 476.619812,189.183899 477.626892,186.249207 
	C478.220428,186.135834 478.543488,186.022232 478.867279,186.020187 
	C482.696442,185.995987 486.525787,185.966507 490.354919,185.981781 
	C495.736694,186.003265 496.763092,187.256058 495.873413,192.567642 
	C495.541840,194.547104 495.268860,196.536392 494.905151,198.945190 
	C499.245178,198.945190 502.727997,199.072052 506.190033,198.859665 
	C507.102417,198.803680 508.386261,197.862701 508.699280,197.028015 
	C508.983612,196.269852 508.377319,194.970963 507.820465,194.140549 
	C505.645996,190.897827 502.690033,188.020264 501.199677,184.508286 
	C497.172028,175.017410 493.840698,165.232788 489.963867,155.673904 
	C489.471069,154.458817 487.391815,153.241974 486.015472,153.204514 
	C484.518280,153.163773 482.123444,154.130096 481.622101,155.300644 
	C479.930084,159.251541 479.033752,163.534485 477.568817,167.595108 
	C476.854187,169.576065 475.554626,171.346008 474.120911,173.784805 
M199.993530,127.006615 
	C190.876190,130.589523 188.715439,133.542572 189.008041,142.020172 
	C189.187531,147.220947 193.314407,151.955704 199.106201,153.605835 
	C205.908417,155.543839 214.722672,150.905563 216.012878,144.709137 
	C218.123428,134.573029 211.579132,126.908142 199.993530,127.006615 
M433.212646,218.017944 
	C429.916382,218.017944 426.620117,218.017944 423.323883,218.017944 
	C427.055420,222.394409 427.213837,233.889160 423.137878,237.470367 
	C426.315521,237.470367 429.020691,237.470367 431.376862,237.470367 
	C430.809052,234.869400 430.329285,232.671860 429.865509,230.547440 
	C434.234985,229.219177 439.626068,231.845993 440.046326,225.032715 
	C440.325165,220.512482 438.628571,218.192459 433.212646,218.017944 
M336.653198,232.971130 
	C339.778473,233.058929 343.927704,231.831772 342.249359,237.567841 
	C344.330750,237.567841 346.036652,237.567841 348.067871,237.567841 
	C344.974945,230.444870 342.086700,223.793320 339.198425,217.141769 
	C338.713867,217.113068 338.229279,217.084366 337.744720,217.055664 
	C334.961731,223.846024 332.178772,230.636368 329.282349,237.703522 
	C330.976990,237.703522 332.567200,237.703522 333.378448,237.703522 
	C334.330933,235.871063 335.078552,234.432800 336.653198,232.971130 
M358.018768,229.440964 
	C357.653473,232.148178 357.288177,234.855392 356.908203,237.671219 
	C358.631592,237.671219 360.962524,237.671219 361.977905,237.671219 
	C361.977905,233.004272 361.852417,228.639877 362.058777,224.291229 
	C362.116333,223.077759 363.154205,221.910812 363.742340,220.722519 
	C364.703949,221.363373 365.649750,222.030624 366.639191,222.625122 
	C366.864899,222.760727 367.241608,222.645096 367.772369,222.645096 
	C368.002472,221.323944 368.233948,219.994934 368.589966,217.950729 
	C364.399017,217.950729 360.763672,218.275406 357.210388,217.873810 
	C352.018219,217.286972 351.387177,217.703186 351.985046,223.340225 
	C353.910248,222.343781 355.738770,221.397400 358.018799,220.217300 
	C358.018799,223.546097 358.018799,226.026672 358.018768,229.440964 
z"/>
<path fill="#5F8E08" opacity="1.000000" stroke="none" 
	d="
M244.058289,113.046875 
	C243.744965,114.316383 243.431641,115.585892 243.118317,116.855400 
	C242.504044,116.702721 241.889771,116.550034 241.275497,116.397354 
	C240.412369,101.837311 243.483032,88.235733 252.415085,76.124252 
	C261.230286,64.171181 273.155243,56.640266 287.562714,51.536648 
	C292.963135,68.699951 292.038055,85.134041 283.071686,100.241768 
	C275.182312,113.534775 257.358765,123.378883 247.033203,122.652428 
	C247.577606,120.329041 248.114761,118.036629 248.853363,114.982254 
	C251.775482,107.709259 254.519226,101.207710 257.201447,94.680878 
	C257.920410,92.931381 258.451752,91.104782 259.069183,89.313576 
	C258.591309,89.135216 258.113403,88.956848 257.635529,88.778488 
	C252.020340,96.228485 246.826447,103.925758 244.058289,113.046875 
z"/>
<path fill="#5F8E07" opacity="1.000000" stroke="none" 
	d="
M188.054016,174.872421 
	C186.899841,174.918152 185.745682,174.963898 183.815186,175.013763 
	C177.341415,175.196304 171.643967,175.374710 166.042511,175.877106 
	C167.417175,176.849579 168.695877,177.498032 170.199463,178.514099 
	C174.953156,178.904678 179.481979,178.927658 184.010788,178.950638 
	C187.281540,180.801315 185.052185,181.373993 183.323456,182.330170 
	C175.629227,186.585938 167.239548,187.042648 158.747986,186.986252 
	C138.128647,186.849289 123.022728,176.206329 110.138306,161.385880 
	C109.650002,160.824188 109.522041,159.949249 108.875946,158.357437 
	C117.604507,154.921677 126.015358,150.660339 134.933960,148.423233 
	C141.237427,146.842117 148.234512,147.821854 154.909943,148.034821 
	C157.365509,148.113159 159.786621,149.271973 162.800568,150.322342 
	C170.548660,153.667969 176.508514,158.243347 181.547485,164.118546 
	C183.604492,166.516922 185.904984,168.706467 188.094696,170.991028 
	C188.094696,170.991028 188.008514,170.990677 187.897766,171.338226 
	C187.876007,172.747986 187.965012,173.810211 188.054016,174.872421 
z"/>
<path fill="#91B838" opacity="1.000000" stroke="none" 
	d="
M151.889832,246.152451 
	C163.535294,236.460724 174.968994,226.470749 182.914398,213.388199 
	C188.414429,204.332077 193.602921,194.877167 192.860870,183.672638 
	C192.489075,178.058731 191.614105,172.478165 190.994537,166.136627 
	C187.672760,161.874695 184.323151,158.358627 180.973526,154.842560 
	C184.361069,155.943100 188.290192,156.297028 191.032837,158.286560 
	C198.730331,163.870392 204.067154,171.408203 206.729950,182.319931 
	C222.688431,160.456100 230.081497,136.713364 234.372894,111.009468 
	C234.935059,109.251343 235.167358,108.091400 235.583923,106.011345 
	C236.059464,112.341682 236.456833,117.631310 236.854218,122.920944 
	C235.832611,138.562439 233.615295,154.045914 227.080261,168.392883 
	C222.130035,179.260559 216.725769,190.057785 210.241806,200.055054 
	C202.569290,211.884827 192.912643,222.238846 181.194046,230.399277 
	C173.587112,235.696518 166.040375,241.090439 158.258362,246.118668 
	C156.394485,247.322983 153.701248,247.243713 151.373932,247.322021 
	C151.699280,246.761749 151.876419,246.516144 151.889832,246.152451 
z"/>
<path fill="#608F09" opacity="1.000000" stroke="none" 
	d="
M195.914062,120.051361 
	C194.489090,119.517479 192.839737,119.280930 191.675125,118.402054 
	C183.362915,112.129265 176.754959,104.571167 174.337418,94.087212 
	C173.748672,91.534035 173.010010,88.926537 173.008682,86.343666 
	C173.004883,78.940666 173.243546,71.531448 173.688156,64.142799 
	C173.738083,63.313129 176.152542,61.686958 176.736740,61.966049 
	C189.987122,68.296066 201.970123,76.119858 206.612900,91.175972 
	C209.739395,101.314934 208.246033,111.186195 203.916077,121.197319 
	C202.800934,120.153351 201.987320,119.391670 200.994461,117.981598 
	C198.842133,114.869385 196.779205,112.471443 194.914429,109.928192 
	C190.867584,104.408958 190.908981,104.378601 188.442978,105.267647 
	C190.928833,110.186646 193.421448,115.119003 195.914062,120.051361 
z"/>
<path fill="#299927" opacity="1.000000" stroke="none" 
	d="
M276.959381,158.046707 
	C272.927277,158.452087 273.822113,155.861649 274.267853,153.034760 
	C277.511414,153.034760 280.811920,152.869400 284.081573,153.114975 
	C285.416168,153.215225 287.255676,153.844177 287.891388,154.848892 
	C292.856842,162.696884 297.585205,170.694870 302.653259,179.236755 
	C304.282532,182.331009 305.645264,184.835037 307.008026,187.339066 
	C307.279541,187.209595 307.551025,187.080139 307.822540,186.950668 
	C307.822540,177.386047 307.822540,167.821426 307.822540,157.944778 
	C306.185699,157.556152 304.592407,157.177872 302.999146,156.799576 
	C302.714142,154.255310 303.326416,152.786285 306.415192,152.964355 
	C310.648468,153.208405 314.906342,153.025375 319.465179,153.025375 
	C320.664124,156.345840 319.715607,158.172974 315.004028,158.271194 
	C314.194794,167.947235 314.078400,177.359406 314.128906,186.770691 
	C314.145203,189.804031 314.600769,192.835022 314.855347,195.867081 
	C314.432556,197.172852 313.928802,199.622498 313.600067,199.599197 
	C311.428131,199.445496 308.255493,199.478561 307.321198,198.127945 
	C302.432343,191.060532 298.114288,183.598282 293.294189,175.715408 
	C290.991119,172.057129 288.991608,168.956741 287.007141,165.525177 
	C286.545837,164.887299 286.069458,164.580582 285.593109,164.273865 
	C285.569580,165.481934 285.546051,166.690002 285.593994,168.260147 
	C285.754578,168.851578 285.843689,169.080917 285.932800,169.310272 
	C285.932800,169.310272 286.074615,169.488998 285.705444,169.910065 
	C285.222900,177.392365 285.064972,184.453735 285.085663,191.514557 
	C285.087189,192.044647 286.363770,192.571014 287.047638,193.099106 
	C288.107697,193.455093 289.455353,193.527649 290.155609,194.238220 
	C291.047119,195.142914 291.760040,196.533859 291.868317,197.774658 
	C291.926086,198.436707 290.573486,199.825821 289.815887,199.856339 
	C285.135773,200.044815 280.425873,200.154968 275.769867,199.765121 
	C274.746826,199.679474 273.901550,197.470428 272.974396,196.239227 
	C274.455963,195.551880 275.937531,194.864517 278.140686,193.888092 
	C278.963806,182.457230 279.106140,171.315308 279.071472,160.173935 
	C279.069275,159.462677 277.695251,158.755692 276.959381,158.046707 
z"/>
<path fill="#259823" opacity="1.000000" stroke="none" 
	d="
M403.133240,197.961609 
	C397.750458,189.611115 392.367676,181.260620 387.089600,172.199127 
	C385.772522,169.163986 384.350769,166.839859 382.929016,164.515717 
	C382.039185,173.891937 381.996674,182.961670 382.127655,192.028870 
	C382.137115,192.686554 383.407837,193.326019 384.092133,193.973969 
	C385.355804,194.924713 386.619507,195.875473 387.883179,196.826202 
	C386.442352,197.545471 385.039764,198.773361 383.553223,198.885178 
	C379.658325,199.178131 375.726837,198.984009 371.565704,198.984009 
	C370.825897,196.191574 370.115021,193.856735 374.987305,193.715485 
	C375.831085,182.454376 375.914459,171.440491 375.908173,160.426651 
	C375.907715,159.619995 375.259186,158.813721 374.911957,158.007278 
	C371.022217,158.496674 370.314148,156.700729 371.445526,153.494049 
	C374.537903,153.008698 377.833710,151.488861 380.229462,152.382370 
	C382.910095,153.382141 385.209656,156.282013 386.911224,158.859299 
	C391.511230,165.826859 395.705963,173.061951 400.021179,180.916473 
	C400.880920,183.091995 401.780945,184.541962 403.218933,186.858490 
	C403.804688,185.110229 404.153839,184.549454 404.156799,183.986877 
	C404.198578,176.018509 404.228394,168.049500 404.139160,160.082016 
	C404.131226,159.373535 403.274597,158.674545 402.812134,157.971130 
	C401.684265,157.971130 400.556396,157.971130 399.188141,157.971130 
	C399.188141,156.089569 399.188141,154.499741 399.188141,153.137253 
	C404.987244,152.864075 410.736389,152.593262 416.785583,152.308304 
	C417.302795,155.493637 417.688995,158.360672 412.284454,157.797516 
	C411.102661,159.296463 410.130890,160.995850 410.110809,162.706436 
	C409.974762,174.297485 410.039734,185.890900 410.039734,197.961594 
	C407.361847,197.961594 405.247559,197.961594 403.133240,197.961609 
z"/>
<path fill="#2B9A28" opacity="1.000000" stroke="none" 
	d="
M364.013550,193.168091 
	C364.970062,194.071198 366.054291,194.413284 366.704407,195.142441 
	C367.358185,195.875702 368.046356,197.102066 367.858673,197.913177 
	C367.674530,198.708923 366.402313,199.820343 365.616180,199.813446 
	C361.711090,199.779297 357.808838,199.421448 352.983032,199.119995 
	C354.060944,196.852951 355.084442,194.700333 356.328735,192.083344 
	C355.973969,191.482178 355.295959,189.942398 354.261688,188.698990 
	C353.360992,187.616226 352.103271,186.171097 350.925049,186.094849 
	C346.289368,185.794800 341.622772,185.971924 336.629517,185.971924 
	C335.770294,189.117676 333.407684,191.702667 336.444092,195.285873 
	C338.161041,197.312012 336.244751,198.919067 333.730499,198.954300 
	C330.420105,199.000702 327.108582,198.965714 321.974274,198.965714 
	C323.549225,196.655014 324.421722,195.294540 325.383301,194.000275 
	C325.821930,193.409912 326.696594,193.046371 326.929596,192.415894 
	C328.681305,187.676590 330.243317,182.866623 332.025085,178.139221 
	C333.257172,174.870239 334.936005,171.763458 336.071899,168.465927 
	C337.638641,163.917755 338.545380,159.110962 340.460632,154.732422 
	C341.066254,153.347916 343.939087,152.630005 345.890167,152.307144 
	C346.761963,152.162872 348.462616,153.537262 348.864807,154.578644 
	C353.509125,166.603394 357.965454,178.700653 362.517487,190.761383 
	C362.799011,191.507278 363.464233,192.108337 364.013550,193.168091 
M342.498474,167.738800 
	C342.632935,168.205826 342.767426,168.672867 342.769684,169.797577 
	C341.825195,171.702911 340.880707,173.608261 339.230225,175.909317 
	C338.863617,177.229111 338.497009,178.548889 338.012909,180.291641 
	C342.279602,180.291641 345.906342,180.287186 349.533081,180.293488 
	C351.398926,180.296722 352.715424,179.989471 350.954590,177.244873 
	C350.633270,176.521652 350.311920,175.798431 350.045532,174.308975 
	C348.506104,170.161301 346.966705,166.013626 345.427307,161.865952 
	C344.965302,161.955215 344.503265,162.044495 344.041260,162.133759 
	C343.709534,164.114883 343.377777,166.096008 343.016876,168.007645 
	C343.016876,168.007645 343.088715,168.030457 342.498474,167.738800 
z"/>
<path fill="#299927" opacity="1.000000" stroke="none" 
	d="
M474.320374,173.498138 
	C475.554626,171.346008 476.854187,169.576065 477.568817,167.595108 
	C479.033752,163.534485 479.930084,159.251541 481.622101,155.300644 
	C482.123444,154.130096 484.518280,153.163773 486.015472,153.204514 
	C487.391815,153.241974 489.471069,154.458817 489.963867,155.673904 
	C493.840698,165.232788 497.172028,175.017410 501.199677,184.508286 
	C502.690033,188.020264 505.645996,190.897827 507.820465,194.140549 
	C508.377319,194.970963 508.983612,196.269852 508.699280,197.028015 
	C508.386261,197.862701 507.102417,198.803680 506.190033,198.859665 
	C502.727997,199.072052 499.245178,198.945190 494.905151,198.945190 
	C495.268860,196.536392 495.541840,194.547104 495.873413,192.567642 
	C496.763092,187.256058 495.736694,186.003265 490.354919,185.981781 
	C486.525787,185.966507 482.696442,185.995987 478.867279,186.020187 
	C478.543488,186.022232 478.220428,186.135834 477.626892,186.249207 
	C476.619812,189.183899 474.129822,192.074585 477.491425,195.387482 
	C477.681061,195.574356 476.059784,198.659027 475.074341,198.785828 
	C471.653839,199.225937 468.141968,198.955750 463.170227,198.955750 
	C468.670990,190.665833 472.791931,182.756378 474.320374,173.498138 
M489.836670,170.458603 
	C489.540985,169.990463 489.245300,169.522324 489.019073,168.315720 
	C488.165894,166.125687 487.312714,163.935654 485.992462,160.546661 
	C484.382782,165.222855 483.181824,168.711746 482.049896,172.823090 
	C481.675995,173.738220 481.302063,174.653366 480.251434,175.980331 
	C479.908081,177.285461 479.564728,178.590607 479.180420,180.051498 
	C483.802582,180.051498 487.855194,180.051498 492.592407,180.051498 
	C491.618073,176.768661 490.764252,173.891998 489.836670,170.458603 
z"/>
<path fill="#2B9A28" opacity="1.000000" stroke="none" 
	d="
M266.991211,193.221786 
	C267.649902,193.541031 268.429932,193.731308 268.938690,194.209915 
	C269.692352,194.918869 270.628754,195.775192 270.766479,196.678635 
	C270.860138,197.293152 269.745300,198.692505 269.128235,198.718231 
	C264.792999,198.899063 260.446686,198.814102 256.103912,198.814102 
	C255.956360,198.251511 255.808792,197.688919 255.661240,197.126328 
	C256.925049,195.787048 258.188873,194.447769 259.716888,192.828522 
	C258.280365,190.812698 257.001068,187.014099 254.848297,186.428925 
	C250.823212,185.334778 246.267609,185.828506 241.978745,186.196991 
	C239.136993,186.441147 237.763077,190.440475 239.095764,193.403641 
	C241.276978,198.253464 240.146698,200.092468 234.882568,200.087646 
	C232.927094,200.085861 230.942078,200.006454 229.028305,199.651169 
	C227.974045,199.455444 226.370148,198.760025 226.210144,198.028320 
	C225.977036,196.962372 226.478867,194.952652 227.262299,194.573029 
	C232.857498,191.861633 232.860107,185.955856 234.854111,181.360107 
	C238.626312,172.665985 241.582260,163.619888 245.221725,154.863174 
	C245.663239,153.800842 248.405807,152.892563 249.762207,153.223480 
	C251.326294,153.605057 253.205292,155.186264 253.778549,156.691696 
	C255.852951,162.139191 257.397644,167.786499 259.240692,173.325638 
	C259.588898,174.372208 260.387421,175.268951 260.952820,176.999268 
	C262.948761,182.916412 264.969971,188.069092 266.991211,193.221786 
M243.192993,176.102875 
	C242.647064,177.296371 242.101135,178.489883 241.387192,180.050690 
	C246.495438,180.050690 250.742569,180.050690 255.884079,180.050690 
	C252.797455,174.270462 252.902206,167.708771 247.302597,162.420395 
	C246.403336,166.312881 245.747284,169.152649 245.031418,172.672699 
	C244.678726,173.713882 244.326035,174.755066 243.192993,176.102875 
z"/>
<path fill="#279824" opacity="1.000000" stroke="none" 
	d="
M433.868164,163.049026 
	C435.523468,166.174881 437.178772,169.300720 438.805054,172.371704 
	C445.347656,167.193863 447.348877,162.917480 444.953094,157.753693 
	C444.803070,155.733627 444.803070,154.490601 444.803070,153.079651 
	C450.016449,153.079651 454.867279,153.079651 460.058136,153.079651 
	C459.986023,154.538589 459.924500,155.783401 459.862976,157.028198 
	C457.358246,160.130417 454.553070,163.041214 452.424072,166.382828 
	C449.693481,170.668747 447.120605,175.144547 445.217194,179.837616 
	C443.879730,183.135330 443.466034,186.917709 443.297333,190.514481 
	C443.244629,191.637604 445.330353,192.867752 446.449799,194.036819 
	C447.273773,194.897339 448.118256,195.738235 448.953613,196.587891 
	C447.893982,197.384567 446.876160,198.792236 445.767242,198.868042 
	C441.788269,199.140045 437.772888,199.071823 433.784821,198.867523 
	C432.907623,198.822601 431.462097,197.748718 431.395508,197.043243 
	C431.310547,196.143097 432.179993,194.939438 432.963043,194.220566 
	C434.150391,193.130585 436.686920,192.430862 436.768005,191.415100 
	C437.023743,188.211243 437.301392,184.488724 435.946899,181.778275 
	C432.452698,174.785904 428.179535,168.170929 424.009125,161.536179 
	C422.870178,159.724182 420.994324,158.375351 418.652557,155.997482 
	C418.664124,155.943436 418.948792,154.613922 419.212463,153.382568 
	C423.698730,153.030869 427.965912,152.696335 432.800720,152.592621 
	C436.200195,155.769745 435.989532,156.234680 430.372131,157.976624 
	C431.605164,159.765656 432.736664,161.407349 433.868164,163.049026 
z"/>
<path fill="#8EB633" opacity="1.000000" stroke="none" 
	d="
M200.408524,126.962738 
	C211.579132,126.908142 218.123428,134.573029 216.012878,144.709137 
	C214.722672,150.905563 205.908417,155.543839 199.106201,153.605835 
	C193.314407,151.955704 189.187531,147.220947 189.008041,142.020172 
	C188.715439,133.542572 190.876190,130.589523 200.408524,126.962738 
z"/>
<path fill="#3EA03D" opacity="1.000000" stroke="none" 
	d="
M408.895844,218.040253 
	C411.884735,218.052689 414.875244,218.013672 417.861511,218.108704 
	C418.766174,218.137512 419.659058,218.537231 420.168823,218.667664 
	C418.308441,221.982773 415.185760,225.109299 415.181976,228.239594 
	C415.178192,231.369690 418.293457,234.503540 420.085663,237.714935 
	C419.056519,237.854675 417.646759,238.270676 416.281769,238.155609 
	C415.308319,238.073517 413.540344,237.140350 413.591461,236.822174 
	C413.967590,234.480240 413.639679,232.537735 410.867523,233.272491 
	C409.514923,233.630997 408.591858,235.610077 408.267487,237.716858 
	C406.335114,237.716858 404.402771,237.716858 401.421875,237.716858 
	C403.933563,232.844315 411.571747,229.093704 404.286011,222.634796 
	C403.357391,220.931641 402.750916,219.761734 401.858521,218.040253 
	C404.484222,218.040253 406.690033,218.040253 408.895844,218.040253 
M411.928558,221.199738 
	C410.776764,221.116943 409.624969,221.034134 408.473175,220.951340 
	C408.447632,221.363419 408.422058,221.775513 408.396515,222.187592 
	C409.559509,222.119507 410.722473,222.051407 411.928558,221.199738 
z"/>
<path fill="#2F992E" opacity="1.000000" stroke="none" 
	d="
M466.882721,218.127747 
	C471.193573,218.219116 475.632660,217.753067 479.746826,218.699463 
	C481.217834,219.037842 483.338623,223.451965 482.687683,224.867569 
	C480.404266,229.833084 483.397675,233.493530 484.598633,238.739227 
	C482.621735,237.753311 481.103333,236.996063 479.258484,235.844849 
	C478.932007,235.450882 478.889557,235.045502 478.945923,234.642792 
	C478.969818,233.155869 478.937378,232.071671 478.855988,230.664154 
	C475.306549,228.412079 476.339935,231.571198 475.827667,232.995834 
	C475.386688,234.491425 474.945709,235.987030 474.435852,237.716141 
	C472.186920,237.716141 469.822998,237.716141 467.282684,237.716141 
	C467.912354,236.226807 468.425140,235.013885 468.999451,232.956741 
	C468.656281,227.400848 470.486664,222.341095 466.882721,218.127747 
M476.772675,220.363632 
	C475.261719,220.294632 473.750793,220.225647 472.137970,220.151993 
	C472.137970,222.741333 472.137970,224.668137 472.137970,227.277267 
	C474.194519,226.865631 475.982178,226.507812 478.071777,225.523163 
	C477.806091,224.025208 477.540405,222.527237 476.772675,220.363632 
z"/>
<path fill="#2A9629" opacity="1.000000" stroke="none" 
	d="
M433.656250,218.007141 
	C438.628571,218.192459 440.325165,220.512482 440.046326,225.032715 
	C439.626068,231.845993 434.234985,229.219177 429.865509,230.547440 
	C430.329285,232.671860 430.809052,234.869400 431.376862,237.470367 
	C429.020691,237.470367 426.315521,237.470367 423.137878,237.470367 
	C427.213837,233.889160 427.055420,222.394409 423.323883,218.017944 
	C426.620117,218.017944 429.916382,218.017944 433.656250,218.007141 
M434.787323,222.384903 
	C430.904144,221.948761 430.904144,221.948761 430.891479,224.561584 
	C432.311859,224.041748 433.779877,223.504456 434.787323,222.384903 
z"/>
<path fill="#2F992E" opacity="1.000000" stroke="none" 
	d="
M461.496765,232.940201 
	C459.584595,237.193161 456.216400,239.558044 451.677002,238.669662 
	C446.846100,237.724274 445.756927,233.850220 444.763428,229.237808 
	C443.614319,223.903122 444.091644,220.436417 449.385895,218.286987 
	C452.853027,216.879364 456.060455,216.280426 459.099915,220.313873 
	C464.038177,224.212631 461.809052,228.725006 461.496765,232.940201 
M450.045258,222.560547 
	C446.524597,228.522507 446.824860,230.228729 452.537689,236.079590 
	C453.508240,235.658020 454.571136,235.261536 455.571167,234.743652 
	C456.570343,234.226196 457.506592,233.587234 458.318207,233.094055 
	C458.204346,230.914047 457.975281,228.972015 458.026093,227.037354 
	C458.171600,221.498444 455.936310,219.951797 450.045258,222.560547 
z"/>
<path fill="#359C33" opacity="1.000000" stroke="none" 
	d="
M283.084839,232.996796 
	C280.351318,235.732788 278.808899,240.237854 273.378204,238.692917 
	C267.276123,236.956970 265.538055,234.769836 266.174957,226.976456 
	C266.384521,224.412354 267.412445,221.156525 269.244568,219.651703 
	C272.428131,217.036819 276.472809,217.022034 280.397156,220.324478 
	C285.186218,224.161438 282.241638,228.935043 283.084839,232.996796 
M275.699341,233.949829 
	C276.196381,233.635681 276.693420,233.321533 277.831787,232.634003 
	C280.695862,230.108627 281.105957,226.392532 278.274628,224.061584 
	C276.530975,222.626083 273.462799,220.747360 272.017792,221.387863 
	C267.769623,223.270889 267.876556,230.070465 271.987091,233.642288 
	C272.641571,233.724686 273.296051,233.807083 274.500580,233.968781 
	C274.684418,233.946045 274.868256,233.923309 275.699341,233.949829 
z"/>
<path fill="#389E37" opacity="1.000000" stroke="none" 
	d="
M240.849091,231.896240 
	C238.371384,234.191681 237.550323,237.914780 233.105896,238.549637 
	C227.328094,239.374939 223.070450,236.651611 223.043671,230.871063 
	C223.039062,229.876205 223.075394,228.880981 223.060287,227.886414 
	C222.929230,219.263107 222.893356,218.944077 231.509857,218.035095 
	C233.797485,217.793762 236.361237,220.169846 238.936691,222.016052 
	C239.414017,222.780014 239.752853,222.872070 240.091690,222.964142 
	C240.091690,222.964142 240.013016,223.004425 239.722321,223.224609 
	C239.904099,226.261948 240.376602,229.079102 240.849091,231.896240 
M229.215668,221.420090 
	C225.430740,225.128571 225.360779,231.716293 229.234863,235.160965 
	C229.927551,235.776886 231.491455,236.122940 232.301147,235.774872 
	C235.863708,234.243378 238.285721,231.310287 237.626617,227.478851 
	C236.972580,223.676910 234.939377,220.247482 229.215668,221.420090 
z"/>
<path fill="#2F992E" opacity="1.000000" stroke="none" 
	d="
M336.239685,232.982834 
	C335.078552,234.432800 334.330933,235.871063 333.378448,237.703522 
	C332.567200,237.703522 330.976990,237.703522 329.282349,237.703522 
	C332.178772,230.636368 334.961731,223.846024 337.744720,217.055664 
	C338.229279,217.084366 338.713867,217.113068 339.198425,217.141769 
	C342.086700,223.793320 344.974945,230.444870 348.067871,237.567841 
	C346.036652,237.567841 344.330750,237.567841 342.249359,237.567841 
	C343.927704,231.831772 339.778473,233.058929 336.239685,232.982834 
z"/>
<path fill="#359C33" opacity="1.000000" stroke="none" 
	d="
M513.004700,230.065735 
	C509.131012,227.908600 509.781647,224.106049 510.271759,220.855774 
	C510.444519,219.710251 513.189819,218.248428 514.813904,218.179153 
	C517.788513,218.052216 521.679810,216.399734 523.211914,220.885345 
	C523.511536,221.762497 523.160339,222.861923 523.109375,223.858826 
	C521.993958,223.667633 520.809021,223.651810 519.779602,223.243668 
	C518.279846,222.649063 516.945923,221.406204 515.431763,221.182983 
	C514.760010,221.083954 513.426819,222.694534 513.143066,223.733658 
	C512.959290,224.406540 513.957275,225.687805 514.742920,226.263687 
	C515.622986,226.908752 516.872620,227.035034 517.941223,227.440231 
	C521.420349,228.759445 525.072876,230.034470 523.471924,234.999161 
	C522.515381,237.965515 517.844910,239.513611 513.887817,237.989243 
	C512.436340,237.430069 510.682281,236.179184 510.273804,234.867706 
	C509.960083,233.860504 511.539520,232.263641 512.648865,230.959656 
	C513.020691,230.990295 512.994080,230.911469 513.045532,231.158112 
	C513.074951,231.571243 513.052979,231.737762 513.002197,232.225739 
	C513.317627,233.086884 513.661865,233.626572 514.258545,234.442322 
	C515.793640,234.755493 517.373779,235.282440 518.294250,234.723312 
	C519.982605,233.697830 521.923157,231.971573 517.659790,231.035339 
	C516.847717,230.989563 516.382324,230.986252 515.959900,230.979645 
	C516.002808,230.976364 516.019409,231.060837 515.961914,230.747421 
	C514.937866,230.311249 513.971252,230.188492 513.004700,230.065735 
z"/>
<path fill="#2A9629" opacity="1.000000" stroke="none" 
	d="
M287.929718,218.137360 
	C292.165009,218.437408 296.586853,218.124527 300.546631,219.329758 
	C302.202454,219.833755 303.609558,223.528564 303.712952,225.836105 
	C303.771454,227.142456 301.138672,229.438721 299.405609,229.803223 
	C292.465546,231.262802 292.420319,231.047745 295.280914,237.734436 
	C292.999054,237.734436 290.761871,237.734436 288.321136,237.734436 
	C288.876587,232.011658 289.408691,226.548553 289.925446,221.083984 
	C289.937042,220.961197 289.788055,220.723022 289.690002,220.709259 
	C289.418091,220.671082 289.133545,220.723145 288.491516,220.496460 
	C288.062622,219.548035 287.996185,218.842712 287.929718,218.137360 
M294.010925,225.236237 
	C294.103638,226.031937 294.196381,226.827621 294.465912,229.139984 
	C296.895020,227.073868 298.687927,225.548920 300.480804,224.023972 
	C299.239410,223.013474 297.998047,222.002975 296.756683,220.992508 
	C295.840912,222.131393 294.925171,223.270294 294.010925,225.236237 
z"/>
<path fill="#259823" opacity="1.000000" stroke="none" 
	d="
M314.112488,224.968246 
	C314.767059,225.272995 315.395233,225.674332 316.081818,225.862106 
	C317.457001,226.238251 318.864166,226.497543 320.258118,226.805084 
	C318.988953,227.535110 317.749603,228.326309 316.436493,228.966156 
	C315.882904,229.235901 315.173798,229.186417 314.271240,229.321594 
	C314.271240,231.347015 314.271240,233.276657 314.271240,236.407959 
	C316.827789,235.699493 319.051392,235.083282 321.275024,234.467072 
	C321.459656,233.812790 321.644287,233.158524 321.828918,232.504242 
	C322.696869,233.994171 323.564850,235.484085 324.837341,237.668488 
	C318.563049,237.668488 313.526306,237.668488 308.242554,237.668488 
	C312.331879,232.530457 312.124695,222.528564 307.080017,218.017273 
	C310.511414,218.017273 312.944702,218.017273 315.377991,218.017273 
	C317.975159,218.017273 320.572357,218.017273 323.809418,218.017273 
	C323.809418,219.304901 324.021332,220.771515 323.678528,222.094376 
	C323.577454,222.484482 321.379242,222.939606 321.042786,222.562088 
	C318.751068,219.991028 316.503632,220.465591 314.065979,222.951248 
	C314.055237,224.107422 314.083862,224.537842 314.112488,224.968246 
z"/>
<path fill="#F8FDF6" opacity="1.000000" stroke="none" 
	d="
M180.613510,154.908417 
	C184.323151,158.358627 187.672760,161.874695 190.993118,165.751740 
	C189.841202,166.112732 188.718536,166.112732 187.590286,166.112732 
	C187.740341,167.550186 187.879059,168.878937 188.056244,170.599365 
	C185.904984,168.706467 183.604492,166.516922 181.547485,164.118546 
	C176.508514,158.243347 170.548660,153.667969 163.170685,150.412872 
	C169.300781,149.693939 175.425400,150.025574 180.613510,154.908417 
z"/>
<path fill="#2F992E" opacity="1.000000" stroke="none" 
	d="
M244.991730,221.995392 
	C248.630722,217.767731 252.976578,216.209045 258.112091,219.003632 
	C260.589355,220.351669 262.359039,222.289917 258.915802,225.136459 
	C257.132874,220.946335 253.418045,220.126816 250.874435,222.443741 
	C248.940079,224.205673 247.975601,228.395096 248.492340,231.145020 
	C249.158630,234.690674 254.625778,234.932587 260.849396,231.698471 
	C260.554474,233.676651 260.807037,235.868835 260.053650,236.298904 
	C257.887970,237.535217 255.169647,238.974136 252.941833,238.618927 
	C250.454697,238.222351 248.267838,235.942551 245.854965,233.787918 
	C245.503662,229.394089 245.247696,225.694748 244.991730,221.995392 
z"/>
<path fill="#259823" opacity="1.000000" stroke="none" 
	d="
M397.104919,222.938431 
	C394.058563,222.029755 391.012207,221.121078 387.309479,220.016617 
	C387.309479,223.065536 387.309479,224.783920 387.309479,226.760818 
	C389.795105,226.920288 392.064972,227.065903 394.334869,227.211533 
	C394.386749,227.541092 394.438629,227.870651 394.490509,228.200211 
	C392.254211,228.599304 390.017914,228.998413 387.368591,229.471222 
	C387.368591,231.296478 387.368591,233.341904 387.368591,236.495377 
	C390.556274,235.693237 393.420502,234.972504 397.084747,234.050446 
	C397.212555,234.397522 397.700867,235.723602 398.397400,237.615173 
	C392.635895,237.615173 387.594482,237.615173 383.007324,237.615173 
	C383.007324,231.443985 383.007324,225.257629 383.007324,218.015656 
	C386.892517,217.834366 391.759918,217.607254 396.834290,218.116516 
	C397.062500,220.214737 397.083710,221.576584 397.104919,222.938431 
z"/>
<path fill="#2F992E" opacity="1.000000" stroke="none" 
	d="
M218.077759,233.126282 
	C218.022842,238.483627 213.491699,238.226913 210.264038,238.734497 
	C206.815643,239.276779 202.351089,235.047546 202.052460,231.514923 
	C201.845566,229.067612 201.938446,226.505707 202.434052,224.105850 
	C203.666000,218.140274 211.416611,215.611893 216.081558,219.588730 
	C218.068985,221.283005 219.078613,223.211197 215.575821,225.196564 
	C214.932785,221.009476 211.783173,219.648422 208.948441,220.970566 
	C205.451233,222.601685 203.778595,226.510605 205.341217,230.289276 
	C206.439224,232.944427 206.895691,238.007660 212.984894,235.165390 
	C215.304092,234.779785 215.007462,230.116104 218.077759,233.126282 
z"/>
<path fill="#279824" opacity="1.000000" stroke="none" 
	d="
M358.018799,228.974121 
	C358.018799,226.026672 358.018799,223.546097 358.018799,220.217300 
	C355.738770,221.397400 353.910248,222.343781 351.985046,223.340225 
	C351.387177,217.703186 352.018219,217.286972 357.210388,217.873810 
	C360.763672,218.275406 364.399017,217.950729 368.589966,217.950729 
	C368.233948,219.994934 368.002472,221.323944 367.772369,222.645096 
	C367.241608,222.645096 366.864899,222.760727 366.639191,222.625122 
	C365.649750,222.030624 364.703949,221.363373 363.742340,220.722519 
	C363.154205,221.910812 362.116333,223.077759 362.058777,224.291229 
	C361.852417,228.639877 361.977905,233.004272 361.977905,237.671219 
	C360.962524,237.671219 358.631592,237.671219 356.908203,237.671219 
	C357.288177,234.855392 357.653473,232.148178 358.018799,228.974121 
z"/>
<path fill="#2A9629" opacity="1.000000" stroke="none" 
	d="
M504.854309,217.962357 
	C504.707825,219.496719 504.561340,221.031097 504.377655,222.954987 
	C502.073822,222.055969 500.460876,221.426559 497.785309,220.382477 
	C498.997223,226.554733 495.370087,232.341141 501.039368,236.783707 
	C500.926300,237.230179 500.813232,237.676651 500.700165,238.123108 
	C498.170166,237.690170 495.640198,237.257233 493.545227,236.388580 
	C494.499573,231.466202 495.018890,226.979553 495.583344,222.102692 
	C493.522583,222.102692 492.281616,222.102692 491.040649,222.102692 
	C490.248657,222.383896 489.456635,222.665070 488.360535,222.469589 
	C488.111084,220.748764 488.165649,219.504608 488.233307,217.962357 
	C494.031952,217.962357 499.443115,217.962357 504.854309,217.962357 
z"/>
<path fill="#F0F9EF" opacity="1.000000" stroke="none" 
	d="
M244.385834,113.037857 
	C246.826447,103.925758 252.020340,96.228485 257.635529,88.778488 
	C258.113403,88.956848 258.591309,89.135216 259.069183,89.313576 
	C258.451752,91.104782 257.920410,92.931381 257.201447,94.680878 
	C254.519226,101.207710 251.775482,107.709259 248.966339,114.610992 
	C247.489700,114.344078 246.101547,113.686455 244.385834,113.037857 
z"/>
<path fill="#F8FDF6" opacity="1.000000" stroke="none" 
	d="
M461.763000,233.227234 
	C461.809052,228.725006 464.038177,224.212631 459.449371,220.454681 
	C461.568970,219.461456 463.843384,218.746887 466.500244,218.080032 
	C470.486664,222.341095 468.656281,227.400848 469.000641,232.575592 
	C468.290222,232.748337 467.090607,232.484116 467.075378,232.163635 
	C466.931702,229.139221 466.989929,226.105240 466.989929,223.074005 
	C466.478271,223.025436 465.966644,222.976883 465.454987,222.928314 
	C464.973785,225.448639 464.625885,228.005447 463.950745,230.472717 
	C463.648010,231.578995 462.689941,232.505936 461.763000,233.227234 
z"/>
<path fill="#F0F9EF" opacity="1.000000" stroke="none" 
	d="
M195.985703,120.414124 
	C193.421448,115.119003 190.928833,110.186646 188.442978,105.267647 
	C190.908981,104.378601 190.867584,104.408958 194.914429,109.928192 
	C196.779205,112.471443 198.842133,114.869385 200.864563,117.666290 
	C200.033249,119.476562 199.152634,120.953751 198.137695,122.656242 
	C197.665359,122.229538 196.861343,121.503212 195.985703,120.414124 
z"/>
<path fill="#E7F5E5" opacity="1.000000" stroke="none" 
	d="
M315.085754,195.507858 
	C314.600769,192.835022 314.145203,189.804031 314.128906,186.770691 
	C314.078400,177.359406 314.194794,167.947235 314.603638,158.313293 
	C315.238800,158.491364 315.762695,158.893921 315.758850,159.291382 
	C315.643311,171.244110 315.475677,183.196335 315.085754,195.507858 
z"/>
<path fill="#F8FDF6" opacity="1.000000" stroke="none" 
	d="
M384.157227,193.630768 
	C383.407837,193.326019 382.137115,192.686554 382.127655,192.028870 
	C381.996674,182.961670 382.039185,173.891937 382.929016,164.515717 
	C384.350769,166.839859 385.772522,169.163986 387.115845,171.856461 
	C384.539886,171.427734 383.883575,172.487747 383.968628,174.896576 
	C384.121033,179.213837 383.855530,183.548904 384.091858,187.858582 
	C384.180603,189.476593 385.180664,191.044617 385.854553,192.878403 
	C385.957550,192.852585 385.089905,193.070084 384.157227,193.630768 
z"/>
<path fill="#F0F9EF" opacity="1.000000" stroke="none" 
	d="
M302.674377,156.970169 
	C304.592407,157.177872 306.185699,157.556152 307.822540,157.944778 
	C307.822540,167.821426 307.822540,177.386047 307.822540,186.950668 
	C307.551025,187.080139 307.279541,187.209595 307.008026,187.339066 
	C305.645264,184.835037 304.282532,182.331009 302.907684,179.471222 
	C303.914703,179.496826 304.933777,179.878189 305.907318,180.242493 
	C306.261047,175.191254 306.541229,169.963089 307.020691,164.753281 
	C307.370087,160.957092 305.792572,158.521027 302.674377,156.970169 
z"/>
<path fill="#74B972" opacity="1.000000" stroke="none" 
	d="
M403.183411,198.316284 
	C405.247559,197.961594 407.361847,197.961594 410.039734,197.961594 
	C410.039734,185.890900 409.974762,174.297485 410.110809,162.706436 
	C410.130890,160.995850 411.102661,159.296463 411.873657,157.824310 
	C411.595490,171.749374 411.077820,185.442047 410.536591,199.757767 
	C408.632690,199.474442 405.933136,199.072708 403.183411,198.316284 
z"/>
<path fill="#F8FDF6" opacity="1.000000" stroke="none" 
	d="
M287.562744,218.077530 
	C287.996185,218.842712 288.062622,219.548035 288.187927,220.600861 
	C287.081177,225.716537 285.915619,230.484711 284.933441,234.502747 
	C285.080719,234.701187 284.456055,233.859573 283.458130,233.007385 
	C282.241638,228.935043 285.186218,224.161438 280.762634,220.411285 
	C282.891052,219.375565 285.043427,218.696625 287.562744,218.077530 
z"/>
<path fill="#FEFFFE" opacity="1.000000" stroke="none" 
	d="
M165.946518,175.553131 
	C171.643967,175.374710 177.341415,175.196304 183.506012,175.059479 
	C183.419357,175.565521 182.865555,176.029968 182.420578,176.403137 
	C182.944519,177.020660 183.471771,177.642059 184.004898,178.607056 
	C179.481979,178.927658 174.953156,178.904678 170.528046,178.365860 
	C169.069992,177.084396 167.508255,176.318771 165.946518,175.553131 
z"/>
<path fill="#FEFFFE" opacity="1.000000" stroke="none" 
	d="
M244.639175,221.995850 
	C245.247696,225.694748 245.503662,229.394089 245.641479,233.550430 
	C244.204529,233.366318 242.885757,232.725204 241.208038,231.990173 
	C240.376602,229.079102 239.904099,226.261948 239.751373,223.191345 
	C240.522934,222.085236 240.974731,221.232590 241.436325,220.361404 
	C242.311874,220.863602 243.299255,221.429947 244.639175,221.995850 
z"/>
<path fill="#FEFFFE" opacity="1.000000" stroke="none" 
	d="
M276.983093,158.451202 
	C277.695251,158.755692 279.069275,159.462677 279.071472,160.173935 
	C279.106140,171.315308 278.963806,182.457230 278.449646,193.744965 
	C277.251770,193.473114 276.466492,193.055328 275.718292,192.657257 
	C279.680511,187.333405 277.573517,180.945496 277.923706,174.908203 
	C278.143188,171.124481 278.025452,167.313095 277.885132,163.520538 
	C277.827271,161.956909 277.313293,160.410141 276.983093,158.451202 
z"/>
<path fill="#F8FDF6" opacity="1.000000" stroke="none" 
	d="
M218.500931,233.072647 
	C215.007462,230.116104 215.304092,234.779785 213.317230,234.998672 
	C212.308289,234.339371 211.658463,233.738815 211.000519,233.130768 
	C214.197220,230.514893 217.364426,227.923141 221.772995,224.315598 
	C219.637512,227.865738 223.713654,231.425674 218.500931,233.072647 
z"/>
<path fill="#F8FDF6" opacity="1.000000" stroke="none" 
	d="
M397.472961,222.956970 
	C397.083710,221.576584 397.062500,220.214737 397.078979,218.445129 
	C401.001953,217.779984 404.887268,217.522614 408.834229,217.652740 
	C406.690033,218.040253 404.484222,218.040253 401.858521,218.040253 
	C402.750916,219.761734 403.357391,220.931641 403.951843,222.480225 
	C402.569672,222.281067 401.199524,221.703232 399.287445,220.896851 
	C399.249969,220.950714 398.545502,221.963120 397.472961,222.956970 
z"/>
<path fill="#F8FDF6" opacity="1.000000" stroke="none" 
	d="
M402.893921,158.435638 
	C403.274597,158.674545 404.131226,159.373535 404.139160,160.082016 
	C404.228394,168.049500 404.198578,176.018509 404.156799,183.986877 
	C404.153839,184.549454 403.804688,185.110229 403.218933,186.858490 
	C401.780945,184.541962 400.880920,183.091995 400.005981,181.275787 
	C400.934326,181.102280 401.837494,181.295013 402.975677,181.537918 
	C402.975677,173.929260 402.975677,166.414703 402.893921,158.435638 
z"/>
<path fill="#E7F5E5" opacity="1.000000" stroke="none" 
	d="
M374.966187,158.472015 
	C375.259186,158.813721 375.907715,159.619995 375.908173,160.426651 
	C375.914459,171.440491 375.831085,182.454376 375.406525,193.685181 
	C375.035645,182.246994 375.028015,170.591858 374.966187,158.472015 
z"/>
<path fill="#F0F9EF" opacity="1.000000" stroke="none" 
	d="
M267.347412,193.129028 
	C264.969971,188.069092 262.948761,182.916412 260.992615,177.377991 
	C262.011566,178.534317 263.098602,180.011185 263.891907,181.631821 
	C265.623138,185.168610 267.207397,188.777451 268.832428,192.365585 
	C268.868256,192.444687 268.703156,192.691025 268.579437,192.750549 
	C268.305176,192.882553 267.997589,192.945282 267.347412,193.129028 
z"/>
<path fill="#FEFFFE" opacity="1.000000" stroke="none" 
	d="
M504.920593,217.617172 
	C499.443115,217.962357 494.031952,217.962357 488.233307,217.962357 
	C488.165649,219.504608 488.111084,220.748764 488.041931,222.423065 
	C487.491821,222.600204 486.528290,222.395218 486.493591,222.086060 
	C486.329987,220.626999 486.420685,219.139450 486.420685,217.271988 
	C492.383240,217.271988 498.685059,217.271988 504.920593,217.617172 
z"/>
<path fill="#F0F9EF" opacity="1.000000" stroke="none" 
	d="
M433.940308,162.647675 
	C432.736664,161.407349 431.605164,159.765656 430.372131,157.976624 
	C435.989532,156.234680 436.200195,155.769745 433.201782,152.476562 
	C434.300568,152.192245 435.565948,152.254807 436.831360,152.317383 
	C436.674774,154.188690 436.768646,156.127869 436.285614,157.910721 
	C435.868988,159.448334 434.795532,160.807968 433.940308,162.647675 
z"/>
<path fill="#E7F5E5" opacity="1.000000" stroke="none" 
	d="
M460.022003,157.300018 
	C459.924500,155.783401 459.986023,154.538589 460.058136,153.079651 
	C454.867279,153.079651 450.016449,153.079651 444.803070,153.079651 
	C444.803070,154.490601 444.803070,155.733627 444.832458,157.433228 
	C444.526276,156.005524 444.190704,154.121262 443.823425,152.059052 
	C449.323090,152.059052 454.095093,151.990372 458.861847,152.117386 
	C459.808289,152.142593 461.566040,153.018921 461.528259,153.330490 
	C461.352905,154.777451 460.677490,156.163788 460.022003,157.300018 
z"/>
<path fill="#F0F9EF" opacity="1.000000" stroke="none" 
	d="
M286.992126,165.856354 
	C288.991608,168.956741 290.991119,172.057129 293.000000,175.506378 
	C292.205017,176.294098 291.400604,176.732956 291.240906,176.820068 
	C289.581848,174.075180 288.103973,171.630096 286.279449,169.247635 
	C285.843689,169.080917 285.754578,168.851578 285.955444,168.205292 
	C286.494293,167.144363 286.743195,166.500351 286.992126,165.856354 
z"/>
<path fill="#E7F5E5" opacity="1.000000" stroke="none" 
	d="
M236.915527,122.460556 
	C236.456833,117.631310 236.059464,112.341682 235.583923,106.011345 
	C235.167358,108.091400 234.935059,109.251343 234.433807,110.628571 
	C234.287979,108.372414 234.411148,105.898964 234.534302,103.425514 
	C235.338608,103.429535 236.142914,103.433548 236.947220,103.437569 
	C236.957092,109.625099 236.966965,115.812630 236.915527,122.460556 
z"/>
<path fill="#FEFFFE" opacity="1.000000" stroke="none" 
	d="
M491.182220,222.461868 
	C492.281616,222.102692 493.522583,222.102692 495.583344,222.102692 
	C495.018890,226.979553 494.499573,231.466202 493.555664,235.986389 
	C493.131012,231.904938 493.131012,227.789932 493.131012,223.217789 
	C493.064758,223.203232 492.194275,223.012146 491.182220,222.461868 
z"/>
<path fill="#74B972" opacity="1.000000" stroke="none" 
	d="
M286.671844,192.869919 
	C286.363770,192.571014 285.087189,192.044647 285.085663,191.514557 
	C285.064972,184.453735 285.222900,177.392365 285.658569,170.014069 
	C286.085876,177.344910 286.190979,184.992813 286.671844,192.869919 
z"/>
<path fill="#FEFFFE" opacity="1.000000" stroke="none" 
	d="
M478.889557,235.045502 
	C478.889557,235.045502 478.932007,235.450882 478.935303,235.654327 
	C477.954620,235.163742 476.970612,234.469727 475.907135,233.385773 
	C476.339935,231.571198 475.306549,228.412079 478.521210,230.787354 
	C478.453430,232.504410 478.671509,233.774963 478.889557,235.045502 
z"/>
<path fill="#F8FDF6" opacity="1.000000" stroke="none" 
	d="
M188.383011,174.742126 
	C187.965012,173.810211 187.876007,172.747986 187.899902,171.295181 
	C188.245865,172.140335 188.478928,173.376099 188.383011,174.742126 
z"/>
<path fill="#FEFFFE" opacity="1.000000" stroke="none" 
	d="
M513.008667,230.296356 
	C513.971252,230.188492 514.937866,230.311249 515.584106,230.719666 
	C514.507202,230.974030 513.750610,230.942749 512.994080,230.911469 
	C512.994080,230.911469 513.020691,230.990295 513.062012,230.984787 
	C513.103394,230.979279 513.012695,230.526962 513.008667,230.296356 
z"/>
<path fill="#F8FDF6" opacity="1.000000" stroke="none" 
	d="
M151.606720,246.014420 
	C151.876419,246.516144 151.699280,246.761749 151.151688,247.009598 
	C150.713058,246.524109 150.481155,245.918274 150.249268,245.312439 
	C150.607376,245.500412 150.965485,245.688400 151.606720,246.014420 
z"/>
<path fill="#FEFFFE" opacity="1.000000" stroke="none" 
	d="
M314.421600,224.982300 
	C314.083862,224.537842 314.055237,224.107422 314.068970,223.355011 
	C314.670197,223.514420 315.229126,223.995834 315.788055,224.477234 
	C315.435608,224.650269 315.083160,224.823303 314.421600,224.982300 
z"/>
<path fill="#FEFFFE" opacity="1.000000" stroke="none" 
	d="
M240.020233,222.705460 
	C239.752853,222.872070 239.414017,222.780014 239.057220,222.338287 
	C239.342422,222.141327 239.645599,222.294052 240.020233,222.705460 
z"/>
<path fill="#000000" opacity="1.000000" stroke="none" 
	d="
M166.042511,175.877121 
	C167.508255,176.318771 169.069992,177.084396 170.303162,177.998260 
	C168.695877,177.498032 167.417175,176.849579 166.042511,175.877121 
z"/>
<path fill="#74B972" opacity="1.000000" stroke="none" 
	d="
M287.007141,165.525177 
	C286.743195,166.500351 286.494293,167.144363 285.883972,167.843231 
	C285.546051,166.690002 285.569580,165.481934 285.593109,164.273865 
	C286.069458,164.580582 286.545837,164.887299 287.007141,165.525177 
z"/>
<path fill="#000000" opacity="1.000000" stroke="none" 
	d="
M349.990570,175.075211 
	C350.311920,175.798431 350.633270,176.521652 350.545410,177.611389 
	C347.463226,177.977890 344.790222,177.977890 341.649994,177.977890 
	C341.359528,177.560196 340.647858,176.536896 339.936218,175.513596 
	C340.880707,173.608261 341.825195,171.702911 342.877197,169.189560 
	C343.019379,168.397842 343.054047,168.214157 343.088715,168.030457 
	C343.088715,168.030457 343.016876,168.007645 343.358765,168.115982 
	C343.937408,168.793610 344.174164,169.362900 344.466339,170.065536 
	C344.873047,169.339706 345.175812,168.799377 345.047058,169.029144 
	C346.561249,170.881042 348.275909,172.978134 349.990570,175.075211 
z"/>
<path fill="#F0F9EF" opacity="1.000000" stroke="none" 
	d="
M350.018066,174.692093 
	C348.275909,172.978134 346.561249,170.881042 345.047058,169.029144 
	C345.175812,168.799377 344.873047,169.339706 344.466339,170.065536 
	C344.174164,169.362900 343.937408,168.793610 343.373352,168.150726 
	C343.377777,166.096008 343.709534,164.114883 344.041260,162.133759 
	C344.503265,162.044495 344.965302,161.955215 345.427307,161.865952 
	C346.966705,166.013626 348.506104,170.161301 350.018066,174.692093 
z"/>
<path fill="#F8FDF6" opacity="1.000000" stroke="none" 
	d="
M339.583221,175.711456 
	C340.647858,176.536896 341.359528,177.560196 341.649994,177.977890 
	C344.790222,177.977890 347.463226,177.977890 350.566559,177.915100 
	C352.715424,179.989471 351.398926,180.296722 349.533081,180.293488 
	C345.906342,180.287186 342.279602,180.291641 338.012909,180.291641 
	C338.497009,178.548889 338.863617,177.229111 339.583221,175.711456 
z"/>
<path fill="#F0F9EF" opacity="1.000000" stroke="none" 
	d="
M342.793579,167.884628 
	C343.054047,168.214157 343.019379,168.397842 342.943298,168.860718 
	C342.767426,168.672867 342.632935,168.205826 342.793579,167.884628 
z"/>
<path fill="#000000" opacity="1.000000" stroke="none" 
	d="
M480.928162,175.568497 
	C481.302063,174.653366 481.675995,173.738220 482.399811,172.434433 
	C483.975464,170.518921 485.201202,168.992081 485.729309,168.334259 
	C487.181458,168.658890 488.065552,168.856537 488.949646,169.054169 
	C489.245300,169.522324 489.540985,169.990463 489.498535,170.912140 
	C489.055267,173.459030 488.950195,175.552399 488.827728,177.991882 
	C485.924225,177.565186 482.516571,179.974884 480.928162,175.568497 
z"/>
<path fill="#F8FDF6" opacity="1.000000" stroke="none" 
	d="
M480.589783,175.774414 
	C482.516571,179.974884 485.924225,177.565186 488.827728,177.991882 
	C488.950195,175.552399 489.055267,173.459030 489.535400,171.190491 
	C490.764252,173.891998 491.618073,176.768661 492.592407,180.051498 
	C487.855194,180.051498 483.802582,180.051498 479.180420,180.051498 
	C479.564728,178.590607 479.908081,177.285461 480.589783,175.774414 
z"/>
<path fill="#E7F5E5" opacity="1.000000" stroke="none" 
	d="
M488.984375,168.684937 
	C488.065552,168.856537 487.181458,168.658890 485.729309,168.334259 
	C485.201202,168.992081 483.975464,170.518921 482.365295,172.123215 
	C483.181824,168.711746 484.382782,165.222855 485.992462,160.546661 
	C487.312714,163.935654 488.165894,166.125687 488.984375,168.684937 
z"/>
<path fill="#F0F9EF" opacity="1.000000" stroke="none" 
	d="
M245.091217,171.992432 
	C245.747284,169.152649 246.403336,166.312881 247.302597,162.420395 
	C252.902206,167.708771 252.797455,174.270462 255.884079,180.050690 
	C250.742569,180.050690 246.495438,180.050690 241.387192,180.050690 
	C242.101135,178.489883 242.647064,177.296371 243.905487,176.090790 
	C247.266052,176.838287 249.914124,177.597839 253.663864,178.673401 
	C251.819397,174.734924 250.566010,172.058548 249.873199,170.579224 
	C247.856201,171.175308 246.473709,171.583878 245.091217,171.992432 
z"/>
<path fill="#000000" opacity="1.000000" stroke="none" 
	d="
M245.061325,172.332565 
	C246.473709,171.583878 247.856201,171.175308 249.873199,170.579224 
	C250.566010,172.058548 251.819397,174.734924 253.663864,178.673401 
	C249.914124,177.597839 247.266052,176.838287 244.295654,175.937485 
	C244.326035,174.755066 244.678726,173.713882 245.061325,172.332565 
z"/>
<path fill="#E7F5E5" opacity="1.000000" stroke="none" 
	d="
M411.907013,221.591522 
	C410.722473,222.051407 409.559509,222.119507 408.396515,222.187592 
	C408.422058,221.775513 408.447632,221.363419 408.473175,220.951340 
	C409.624969,221.034134 410.776764,221.116943 411.907013,221.591522 
z"/>
<path fill="#F0F9EF" opacity="1.000000" stroke="none" 
	d="
M477.769836,226.150009 
	C475.982178,226.507812 474.194519,226.865631 472.137970,227.277267 
	C472.137970,224.668137 472.137970,222.741333 472.137970,220.151993 
	C473.750793,220.225647 475.261719,220.294632 476.908722,221.064331 
	C477.044769,222.729950 477.044769,223.694870 477.044769,225.189438 
	C475.845001,223.410110 474.973511,222.117615 474.101990,220.825134 
	C473.790833,221.038788 473.479675,221.252441 473.168488,221.466095 
	C473.361206,222.865372 473.553894,224.264648 473.773529,225.859406 
	C474.863586,225.938675 476.316711,226.044342 477.769836,226.150009 
z"/>
<path fill="#000000" opacity="1.000000" stroke="none" 
	d="
M477.920807,225.836578 
	C476.316711,226.044342 474.863586,225.938675 473.773529,225.859406 
	C473.553894,224.264648 473.361206,222.865372 473.168488,221.466095 
	C473.479675,221.252441 473.790833,221.038788 474.101990,220.825134 
	C474.973511,222.117615 475.845001,223.410110 477.044769,225.189438 
	C477.044769,223.694870 477.044769,222.729950 477.159729,221.397156 
	C477.540405,222.527237 477.806091,224.025208 477.920807,225.836578 
z"/>
<path fill="#000000" opacity="1.000000" stroke="none" 
	d="
M478.945923,234.642792 
	C478.671509,233.774963 478.453430,232.504410 478.570129,231.110657 
	C478.937378,232.071671 478.969818,233.155869 478.945923,234.642792 
z"/>
<path fill="#FEFFFE" opacity="1.000000" stroke="none" 
	d="
M435.017639,222.676025 
	C433.779877,223.504456 432.311859,224.041748 430.891479,224.561584 
	C430.904144,221.948761 430.904144,221.948761 435.017639,222.676025 
z"/>
<path fill="#000000" opacity="1.000000" stroke="none" 
	d="
M450.347412,222.302948 
	C455.936310,219.951797 458.171600,221.498444 458.026093,227.037354 
	C457.975281,228.972015 458.204346,230.914047 458.318207,233.094055 
	C457.506592,233.587234 456.570343,234.226196 455.571167,234.743652 
	C454.571136,235.261536 453.508240,235.658020 452.537689,236.079590 
	C446.824860,230.228729 446.524597,228.522507 450.347412,222.302948 
z"/>
<path fill="#000000" opacity="1.000000" stroke="none" 
	d="
M271.730194,233.006546 
	C267.876556,230.070465 267.769623,223.270889 272.017792,221.387863 
	C273.462799,220.747360 276.530975,222.626083 278.274628,224.061584 
	C281.105957,226.392532 280.695862,230.108627 277.389465,232.542007 
	C276.315460,232.933533 275.683777,233.417053 275.052094,233.900574 
	C274.868256,233.923309 274.684418,233.946045 274.247131,233.581009 
	C273.239197,233.131012 272.484680,233.068787 271.730194,233.006546 
z"/>
<path fill="#FEFFFE" opacity="1.000000" stroke="none" 
	d="
M271.858643,233.324417 
	C272.484680,233.068787 273.239197,233.131012 273.972107,233.541351 
	C273.296051,233.807083 272.641571,233.724686 271.858643,233.324417 
z"/>
<path fill="#FEFFFE" opacity="1.000000" stroke="none" 
	d="
M275.375732,233.925201 
	C275.683777,233.417053 276.315460,232.933533 277.068787,232.728699 
	C276.693420,233.321533 276.196381,233.635681 275.375732,233.925201 
z"/>
<path fill="#000000" opacity="1.000000" stroke="none" 
	d="
M229.570404,221.241943 
	C234.939377,220.247482 236.972580,223.676910 237.626617,227.478851 
	C238.285721,231.310287 235.863708,234.243378 232.301147,235.774872 
	C231.491455,236.122940 229.927551,235.776886 229.234863,235.160965 
	C225.360779,231.716293 225.430740,225.128571 229.570404,221.241943 
z"/>
<path fill="#000000" opacity="1.000000" stroke="none" 
	d="
M513.045532,231.158112 
	C513.750610,230.942749 514.507202,230.974030 515.641602,231.033081 
	C516.019409,231.060837 516.002808,230.976364 515.999146,231.335037 
	C516.771545,232.103363 517.547607,232.513016 518.323669,232.922668 
	C518.217957,232.307709 518.112183,231.692749 518.006470,231.077789 
	C521.923157,231.971573 519.982605,233.697830 518.294250,234.723312 
	C517.373779,235.282440 515.793640,234.755493 514.580322,234.292953 
	C514.110107,233.213120 513.570557,232.558701 513.031006,231.904297 
	C513.052979,231.737762 513.074951,231.571243 513.045532,231.158112 
z"/>
<path fill="#FEFFFE" opacity="1.000000" stroke="none" 
	d="
M517.659790,231.035339 
	C518.112183,231.692749 518.217957,232.307709 518.323669,232.922668 
	C517.547607,232.513016 516.771545,232.103363 515.956238,231.338318 
	C516.382324,230.986252 516.847717,230.989563 517.659790,231.035339 
z"/>
<path fill="#FEFFFE" opacity="1.000000" stroke="none" 
	d="
M513.002197,232.225739 
	C513.570557,232.558701 514.110107,233.213120 514.327881,234.016891 
	C513.661865,233.626572 513.317627,233.086884 513.002197,232.225739 
z"/>
<path fill="#000000" opacity="1.000000" stroke="none" 
	d="
M294.010193,224.822708 
	C294.925171,223.270294 295.840912,222.131393 296.756653,220.992493 
	C297.998047,222.002975 299.239410,223.013474 300.480804,224.023972 
	C298.687927,225.548920 296.895020,227.073868 294.465912,229.139984 
	C294.196381,226.827621 294.103638,226.031937 294.010193,224.822708 
z"/>
</svg>